<?xml version="1.0" encoding="UTF-8"?>
<svg version="1.1" xmlns="http://www.w3.org/2000/svg" width="154" height="184">
<path d="M0 0 C-0.33 3.63 -0.66 7.26 -1 11 C0.32 10.67 1.64 10.34 3 10 C5.76171875 11.3984375 5.76171875 11.3984375 8.6875 13.375 C9.66074219 14.02210937 10.63398438 14.66921875 11.63671875 15.3359375 C14.94049631 17.66223376 14.94049631 17.66223376 15.55441284 21.14706421 C15.96432137 24.69149139 16.12685698 28.08196921 16.12939453 31.64697266 C16.13254669 32.92585358 16.13569885 34.2047345 16.13894653 35.52236938 C16.13715525 36.90293411 16.13510392 38.28349852 16.1328125 39.6640625 C16.1334876 41.10265113 16.13445934 42.54123964 16.13571167 43.97982788 C16.13718179 46.99063201 16.1350581 50.00140638 16.13037109 53.01220703 C16.12470515 56.83449012 16.1279372 60.65670249 16.13394356 64.47898293 C16.13759427 67.45104484 16.13638959 70.42309059 16.13381577 73.39515305 C16.13315729 74.80228051 16.13393632 76.20940954 16.13629532 77.61653519 C16.14530053 84.50293112 16.06509254 91.38397671 15.71972656 98.26245117 C15.64579681 99.80626717 15.64579681 99.80626717 15.57037354 101.38127136 C14.88265207 104.53877392 13.96146439 105.43405838 11.3515625 107.26171875 C9.58106774 108.20012994 7.79517742 109.10971618 6 110 C4.3022334 111.01921102 2.60500134 112.03948157 0.91937256 113.0786438 C-0.95215182 114.23047332 -2.83503438 115.36109459 -4.72265625 116.48632812 C-5.36605957 116.86990479 -6.00946289 117.25348145 -6.67236328 117.64868164 C-7.3167334 118.0327417 -7.96110352 118.41680176 -8.625 118.8125 C-10.54158074 119.95791648 -12.45778144 121.10396454 -14.37371826 122.25045776 C-15.64667777 123.01082198 -16.9208028 123.76923847 -18.19610596 124.52566528 C-21.54537836 126.51490648 -24.86800159 128.53678317 -28.16308594 130.61474609 C-28.84140472 131.03705002 -29.51972351 131.45935394 -30.21859741 131.89445496 C-31.5178113 132.70454074 -32.81101389 133.52437266 -34.09707642 134.35517883 C-38.46201891 137.05737381 -38.46201891 137.05737381 -41.42431641 136.74145508 C-41.94429199 136.4967749 -42.46426758 136.25209473 -43 136 C-43.16374356 134.6081797 -43.27920565 133.21064132 -43.375 131.8125 C-43.47941406 130.64654297 -43.47941406 130.64654297 -43.5859375 129.45703125 C-42.47220836 124.78679373 -38.20312941 122.76508926 -34.37207031 120.32885742 C-31.24560034 118.41580941 -28.09647113 116.54636386 -24.9375 114.6875 C-22.69491599 113.35743916 -20.45272467 112.02671597 -18.2109375 110.6953125 C-17.1394043 110.06012695 -16.06787109 109.42494141 -14.96386719 108.77050781 C-10.31628845 105.99421119 -5.73229197 103.12100877 -1.16015625 100.22265625 C1 99 1 99 3 99 C3.04633734 89.68146542 3.08187631 80.3629705 3.10362434 71.04434586 C3.11406222 66.71734803 3.1282215 62.39042903 3.15087891 58.06347656 C3.17260714 53.88784765 3.1845686 49.71229455 3.18975449 45.53661346 C3.19345028 43.94340573 3.2006672 42.35020214 3.21146011 40.75702667 C3.22597485 38.52575202 3.22797796 36.29479082 3.22705078 34.06347656 C3.231492 32.79328674 3.23593323 31.52309692 3.24050903 30.2144165 C3.01151103 27.15384556 2.69967545 25.51107647 1 23 C-1.28504837 21.02872012 -1.28504837 21.02872012 -4 20 C-6.06669397 20.90833725 -6.06669397 20.90833725 -8 22 C-10.25 21.125 -10.25 21.125 -12 20 C-14.66372764 21.58690157 -16.17865412 22.557972 -18 25 C-18.86827004 28.98246523 -18.90738324 32.93515319 -19 37 C-19.62111801 45.62111801 -19.62111801 45.62111801 -22 48 C-32.92826353 51.84654497 -47.51957365 50.12787604 -59 50 C-60.32 47.03 -61.64 44.06 -63 41 C-63.33 43.64 -63.66 46.28 -64 49 C-69.30670387 50.14949774 -74.24870266 49.99073937 -79.625 49.6875 C-80.50639648 49.64117432 -81.38779297 49.59484863 -82.29589844 49.54711914 C-88.97204817 49.155088 -95.44725423 48.37181466 -102 47 C-102.54212136 40.72360907 -102.54212136 40.72360907 -100.19140625 37.5859375 C-99.32386719 36.85632813 -98.45632812 36.12671875 -97.5625 35.375 C-96.07943359 34.12203125 -96.07943359 34.12203125 -94.56640625 32.84375 C-93.38032813 31.89242719 -92.19127109 30.94481193 -91 30 C-90.29343262 29.4328125 -89.58686523 28.865625 -88.85888672 28.28125 C-86.5840035 26.46408484 -84.29611895 24.66524416 -82 22.875 C-81.2582251 22.29411621 -80.5164502 21.71323242 -79.75219727 21.11474609 C-79.05022217 20.57930176 -78.34824707 20.04385742 -77.625 19.4921875 C-76.99851562 19.01120605 -76.37203125 18.53022461 -75.7265625 18.03466797 C-74 17 -74 17 -71 17 C-69.0546875 18.72265625 -69.0546875 18.72265625 -66.875 21.0625 C-59.56143586 28.68604419 -59.56143586 28.68604419 -50.55859375 33.99609375 C-47.79140442 34.26665544 -47.79140442 34.26665544 -45.45703125 31.97265625 C-44.58433594 31.01230469 -43.71164063 30.05195312 -42.8125 29.0625 C-41.85202294 28.03496334 -40.88709857 27.0115673 -39.91796875 25.9921875 C-39.43376465 25.48268555 -38.94956055 24.97318359 -38.45068359 24.44824219 C-36.32597411 22.32710845 -34.00342622 20.51487081 -31.625 18.6875 C-27.810816 15.70539117 -24.65562574 13.07195947 -22 9 C-21.58009927 5.74723247 -21.58009927 5.74723247 -22 3 C-18.35870471 0.79287217 -14.58596869 0.3285583 -10.4375 -0.1875 C-9.76525391 -0.28224609 -9.09300781 -0.37699219 -8.40039062 -0.47460938 C-5.17822303 -0.89377914 -3.12466453 -1.04155484 0 0 Z M-3 13 C-2 16 -2 16 -2 16 Z " fill="#D4B563" transform="translate(138,29)"/>
<path d="M0 0 C0 2.31 0 4.62 0 7 C-1.98 7.66 -3.96 8.32 -6 9 C24.22233488 16.37130119 63.0000398 18.10929966 93 9 C90.69 8.34 88.38 7.68 86 7 C86 5.02 86 3.04 86 1 C88.83519141 -0.41759571 90.35365048 0.42378646 93.375 1.25 C94.33148438 1.50265625 95.28796875 1.7553125 96.2734375 2.015625 C98.99027504 2.99648898 100.80502282 4.14831309 103 6 C102.36041151 9.25742832 101.18209611 11.60484346 99.41796875 14.40625 C98.89783203 15.23253906 98.37769531 16.05882813 97.84179688 16.91015625 C97.29587891 17.76480469 96.74996094 18.61945313 96.1875 19.5 C95.65318359 20.35464844 95.11886719 21.20929688 94.56835938 22.08984375 C88.0665563 32.34237947 88.0665563 32.34237947 84.1519928 33.58807373 C81.803236 34.07174701 79.4683136 34.42031905 77.08984375 34.7265625 C76.20811996 34.84818756 75.32639618 34.96981262 74.41795349 35.09512329 C65.37648258 36.24296949 56.37740839 36.45510614 47.27319336 36.39111328 C44.56638083 36.37502307 41.86106505 36.39108589 39.15429688 36.41015625 C29.84509619 36.42296944 20.69881464 35.94232295 11.46484375 34.7265625 C10.5884877 34.61871429 9.71213165 34.51086609 8.80921936 34.39974976 C2.61832735 33.48787671 -0.78897978 31.77061066 -4.77685547 26.7734375 C-6.48954904 24.19046211 -8.19380343 21.60362301 -9.875 19 C-10.48085938 18.09765625 -11.08671875 17.1953125 -11.7109375 16.265625 C-12.278125 15.39421875 -12.8453125 14.5228125 -13.4296875 13.625 C-14.20675049 12.43777344 -14.20675049 12.43777344 -14.99951172 11.2265625 C-16 9 -16 9 -15.76953125 6.7878418 C-14.7172079 4.34299284 -13.52335937 3.8886869 -11.125 2.8125 C-10.07699219 2.32716797 -10.07699219 2.32716797 -9.0078125 1.83203125 C-5.71104157 0.46585964 -3.64931355 0 0 0 Z " fill="#2965D5" transform="translate(34,67)"/>
<path d="M0 0 C1.24337994 4.39788089 1.52491133 7.65025294 0 12 C-4.66364327 16.34753021 -10.58431567 19.20606496 -16.23413086 22.06713867 C-17.97304494 22.8747329 -17.97304494 22.8747329 -19 24 C-20.77172232 39.56004459 -20.11305334 55.43579624 -20.0625 71.0625 C-20.05689635 73.77929543 -20.05284377 76.49609244 -20.04882812 79.21289062 C-20.03791192 85.80861373 -20.02126136 92.40430255 -20 99 C-19.22658264 99.30208374 -18.45316528 99.60416748 -17.65631104 99.91540527 C-14.89029296 101.04479433 -12.43375514 102.39190874 -9.859375 103.90625 C-8.38791016 104.76694092 -8.38791016 104.76694092 -6.88671875 105.64501953 C-4.76771914 106.89814524 -2.65057441 108.15441204 -0.53515625 109.41357422 C4.36985777 112.32537159 9.25283282 115.18103446 14.359375 117.7265625 C18.5887848 119.88060775 22.38716259 121.8909447 26 125 C27.36142343 129.31545539 27.14212033 132.65546383 26 137 C22.07211802 135.54589791 18.58532755 133.69909033 14.9765625 131.578125 C14.10346939 131.06617584 14.10346939 131.06617584 13.21273804 130.54388428 C11.97288757 129.81589755 10.73402673 129.0862231 9.49609375 128.35498047 C7.09258631 126.93558137 4.68453691 125.52411705 2.2719574 124.12019348 C1.00955774 123.36966293 -0.24024379 122.59761431 -1.47789001 121.80693054 C-5.54495199 119.24801883 -9.46199322 117.41992861 -13.99438477 115.80395508 C-20.86788299 113.04327983 -26.63314559 110.16224776 -31 104 C-35.47800485 92.64382893 -34.53040368 79.10501877 -34.27319336 67.13452148 C-34.17007516 62.17904548 -34.29946007 57.26023091 -34.48795891 52.30845451 C-35.46987763 22.37201608 -35.46987763 22.37201608 -28.11920166 14.49029541 C-20.91844214 7.99577639 -12.02193967 4.24751337 -3 1 C-1 0 -1 0 0 0 Z " fill="#2C62C8" transform="translate(33,29)"/>
<path d="M0 0 C0.495 0.99 0.495 0.99 1 2 C-0.10194873 3.61475712 -1.26176691 5.19015307 -2.4453125 6.74609375 C-6.96815623 13.6109246 -6.37751089 19.11548194 -5.875 27.0625 C-5.66270133 39.10810822 -5.66270133 39.10810822 -8.54003906 43.17871094 C-12.50568972 46.58149505 -17.05661298 48.49649748 -21.94335938 50.23291016 C-24.58919079 51.21975753 -26.8708356 52.61576816 -29.25 54.125 C-32.33699858 55.97464791 -34.42524344 56.06956204 -38 56 C-37.99363525 54.75500732 -37.98727051 53.51001465 -37.98071289 52.22729492 C-37.96616896 47.56193876 -37.99783493 42.89779734 -38.04272461 38.23266602 C-38.05578004 36.22229163 -38.05667657 34.21179698 -38.04467773 32.20141602 C-37.80815349 15.77299005 -37.80815349 15.77299005 -46 2 C-42.40321617 0.92573934 -39.57177834 1.27335759 -35.859375 1.734375 C-23.77881183 2.85661311 -11.95919866 1.65771071 0 0 Z " fill="#184593" transform="translate(100,128)"/>
<path d="M0 0 C1.26585937 0.2165625 2.53171875 0.433125 3.8359375 0.65625 C29.43615789 4.68894846 55.45434754 4.22886645 81 0 C79.5315475 5.5591416 76.77627642 9.62765653 73.5 14.25 C73.00113281 14.96929687 72.50226563 15.68859375 71.98828125 16.4296875 C66.84402408 23.79438812 66.84402408 23.79438812 63.40234375 24.6328125 C55.00737751 25.82533307 46.73021338 26.20853196 38.25 26.25 C36.68946899 26.26377686 36.68946899 26.26377686 35.09741211 26.27783203 C17.83940021 26.20947264 17.83940021 26.20947264 12.9465332 22.40209961 C11.0314377 20.39257986 9.5376908 18.31358982 8 16 C7.27296875 14.906875 6.5459375 13.81375 5.796875 12.6875 C0 3.68619594 0 3.68619594 0 0 Z " fill="#2A6BAE" transform="translate(37,102)"/>
<path d="M0 0 C0.66 0.33 1.32 0.66 2 1 C2 14.86 2 28.72 2 43 C-1.04951395 41.47524303 -3.36399506 40.07114674 -6 38 C-9.1847097 39.45153435 -11.72250309 41.23528497 -14.4375 43.4375 C-15.30375 44.13746094 -16.17 44.83742187 -17.0625 45.55859375 C-19.209233 47.34278009 -21.33032416 49.14295652 -23.4375 50.97265625 C-24.01830322 51.47418213 -24.59910645 51.97570801 -25.19750977 52.49243164 C-26.3444832 53.48619633 -27.48577162 54.48656621 -28.62084961 55.49389648 C-32.66740253 59 -32.66740253 59 -36 59 C-36.22320235 53.84078257 -36.38610225 48.68439491 -36.49438477 43.52148438 C-36.53953126 41.76740561 -36.60086921 40.01366349 -36.67895508 38.26074219 C-37.30973573 23.73217339 -37.30973573 23.73217339 -34.21362305 19.63745117 C-31.86756335 18.06116498 -29.62946341 17.02305151 -27 16 C-25.73858115 15.25585589 -24.49090668 14.48766313 -23.26171875 13.69140625 C-22.07195615 12.97901854 -20.88053243 12.26939808 -19.6875 11.5625 C-19.05303955 11.18561035 -18.4185791 10.8087207 -17.76489258 10.42041016 C-16.47271452 9.65353795 -15.17999726 8.8875735 -13.88671875 8.12255859 C-12.06292693 7.03744022 -10.24929099 5.93704136 -8.4375 4.83203125 C-7.365 4.18621094 -6.2925 3.54039063 -5.1875 2.875 C-4.23230469 2.29492188 -3.27710938 1.71484375 -2.29296875 1.1171875 C-1.53628906 0.74851562 -0.77960938 0.37984375 0 0 Z " fill="#2964D4" transform="translate(72,5)"/>
<path d="M0 0 C4.72626177 0.4170231 7.99320851 2.6477777 12 5 C12.11573369 16.16108373 12.20463397 27.32202527 12.25906086 38.48358631 C12.28518018 43.66611197 12.32062094 48.84822782 12.37719727 54.03051758 C12.43143361 59.0296247 12.46140293 64.02833711 12.47438622 69.02771568 C12.48364118 70.93719385 12.50171374 72.84664987 12.52865028 74.75596046 C12.56482992 77.42608327 12.56995011 80.09456502 12.56762695 82.76489258 C12.58560333 83.55827026 12.60357971 84.35164795 12.62210083 85.16906738 C12.60127258 87.37434387 12.60127258 87.37434387 12 91 C9.57587351 93.02610282 8.17580679 94 5 94 C5 94.99 5 95.98 5 97 C3.01030009 98.46316797 1.09651648 99.68924273 -1.03515625 100.9140625 C-1.98061562 101.47497086 -1.98061562 101.47497086 -2.94517517 102.04721069 C-4.97831766 103.25027632 -7.02003681 104.43784086 -9.0625 105.625 C-10.38146356 106.40131815 -11.69982994 107.17865187 -13.01757812 107.95703125 C-14.99684233 109.1258806 -16.97747353 110.2918668 -18.96401978 111.44830322 C-22.41145368 113.45676111 -25.82542981 115.50316374 -29.20263672 117.62792969 C-29.88136337 118.05036957 -30.56009003 118.47280945 -31.25938416 118.90805054 C-32.55454364 119.71667347 -33.84363527 120.53512282 -35.12550354 121.36465454 C-39.46512037 124.05725654 -39.46512037 124.05725654 -42.42211914 123.74072266 C-42.94281982 123.49628418 -43.46352051 123.2518457 -44 123 C-44.16374356 121.6081797 -44.27920565 120.21064132 -44.375 118.8125 C-44.44460937 118.03519531 -44.51421875 117.25789063 -44.5859375 116.45703125 C-43.46494569 111.75633894 -39.14790937 109.72874759 -35.29150391 107.28051758 C-32.08762198 105.32128533 -28.86145786 103.40490818 -25.625 101.5 C-23.42930531 100.19856125 -21.23398451 98.89649148 -19.0390625 97.59375 C-17.99524414 96.97886719 -16.95142578 96.36398438 -15.87597656 95.73046875 C-12.87647358 93.92567443 -9.9596375 92.02602119 -7.08740234 90.02539062 C-3.93659211 88.47762419 -0.40562663 87.85140666 3 87 C3 60.6 3 34.2 3 7 C1.68 6.67 0.36 6.34 -1 6 C-1.042721 4.33388095 -1.04063832 2.66617115 -1 1 C-0.67 0.67 -0.34 0.34 0 0 Z " fill="#EABE3A" transform="translate(139,42)"/>
<path d="M0 0 C0.04241723 2.33294775 0.04092937 4.66702567 0 7 C-1 8 -1 8 -4.0625 8.0625 C-5.031875 8.041875 -6.00125 8.02125 -7 8 C-6.67 7.34 -6.34 6.68 -6 6 C-4.68 6 -3.36 6 -2 6 C-2.33 5.01 -2.66 4.02 -3 3 C-7.95 4.485 -7.95 4.485 -13 6 C-12.02359177 10.88204117 -11.00211164 12.89168052 -8.25 16.875 C-7.57453125 17.86242187 -6.8990625 18.84984375 -6.203125 19.8671875 C-5.11257812 21.41792969 -5.11257812 21.41792969 -4 23 C-3.62190186 23.6199585 -3.24380371 24.23991699 -2.85424805 24.87866211 C-0.78665384 28.1314586 0.38230088 29.73962099 4.01171875 31.26953125 C5.22472656 31.44871094 6.43773438 31.62789062 7.6875 31.8125 C8.71991821 31.96875854 8.71991821 31.96875854 9.77319336 32.12817383 C23.71924564 34.00255789 37.95604732 34.33020964 52 35 C52.21281616 34.08541016 52.21281616 34.08541016 52.42993164 33.15234375 C53.11706427 30.55801346 54.21176913 28.38599243 55.4375 26 C56.08525391 24.7315625 56.08525391 24.7315625 56.74609375 23.4375 C57.36677734 22.2309375 57.36677734 22.2309375 58 21 C58.66775493 19.66721135 59.33460274 18.33396728 60 17 C58.94312988 16.98018066 57.88625977 16.96036133 56.79736328 16.93994141 C52.78251825 16.86243519 48.76796962 16.77397613 44.75341797 16.68261719 C43.03342646 16.64491349 41.31337162 16.60997274 39.59326172 16.578125 C24.65146404 16.2983488 9.53544731 15.7684493 -5 12 C-1.66798287 9.77865524 -1.34077931 9.80094387 2.359375 10.42578125 C3.21990479 10.56266357 4.08043457 10.6995459 4.96704102 10.84057617 C5.88541748 10.99631104 6.80379395 11.1520459 7.75 11.3125 C34.87465799 15.52574836 66.45922986 17.0589383 93 9 C90.69 8.34 88.38 7.68 86 7 C86 5.02 86 3.04 86 1 C88.83519141 -0.41759571 90.35365048 0.42378646 93.375 1.25 C94.33148438 1.50265625 95.28796875 1.7553125 96.2734375 2.015625 C98.99027504 2.99648898 100.80502282 4.14831309 103 6 C102.36041151 9.25742832 101.18209611 11.60484346 99.41796875 14.40625 C98.89783203 15.23253906 98.37769531 16.05882813 97.84179688 16.91015625 C97.29587891 17.76480469 96.74996094 18.61945313 96.1875 19.5 C95.65318359 20.35464844 95.11886719 21.20929688 94.56835938 22.08984375 C88.0665563 32.34237947 88.0665563 32.34237947 84.1519928 33.58807373 C81.803236 34.07174701 79.4683136 34.42031905 77.08984375 34.7265625 C76.20811996 34.84818756 75.32639618 34.96981262 74.41795349 35.09512329 C65.37648258 36.24296949 56.37740839 36.45510614 47.27319336 36.39111328 C44.56638083 36.37502307 41.86106505 36.39108589 39.15429688 36.41015625 C29.84509619 36.42296944 20.69881464 35.94232295 11.46484375 34.7265625 C10.5884877 34.61871429 9.71213165 34.51086609 8.80921936 34.39974976 C2.61832735 33.48787671 -0.78897978 31.77061066 -4.77685547 26.7734375 C-6.48954904 24.19046211 -8.19380343 21.60362301 -9.875 19 C-10.48085938 18.09765625 -11.08671875 17.1953125 -11.7109375 16.265625 C-12.278125 15.39421875 -12.8453125 14.5228125 -13.4296875 13.625 C-14.20675049 12.43777344 -14.20675049 12.43777344 -14.99951172 11.2265625 C-16 9 -16 9 -15.76953125 6.7878418 C-14.7172079 4.34299284 -13.52335937 3.8886869 -11.125 2.8125 C-10.07699219 2.32716797 -10.07699219 2.32716797 -9.0078125 1.83203125 C-5.71104157 0.46585964 -3.64931355 0 0 0 Z " fill="#204582" transform="translate(34,67)"/>
<path d="M0 0 C0.1799928 5.21979128 -0.02905192 9.07262981 -2 14 C-2.99 14 -3.98 14 -5 14 C-5.33 14.99 -5.66 15.98 -6 17 C-7.093125 17.103125 -8.18625 17.20625 -9.3125 17.3125 C-12.98536808 17.99727202 -13.75237686 18.27919304 -16 21 C-16.66 21 -17.32 21 -18 21 C-17.98839844 22.18078125 -17.97679687 23.3615625 -17.96484375 24.578125 C-17.95546248 26.13541508 -17.94636264 27.69270688 -17.9375 29.25 C-17.92912109 30.02730469 -17.92074219 30.80460937 -17.91210938 31.60546875 C-17.90888672 32.35957031 -17.90566406 33.11367187 -17.90234375 33.890625 C-17.89710693 34.58188477 -17.89187012 35.27314453 -17.88647461 35.98535156 C-18.00759594 38.13479935 -18.3014766 39.9620201 -19 42 C-23.25102229 44.12551114 -28.67317023 43.43325054 -33.0625 42 C-33.701875 41.67 -34.34125 41.34 -35 41 C-35.6496875 42.0209375 -35.6496875 42.0209375 -36.3125 43.0625 C-40.0999144 45.79296154 -42.84131777 45.06182959 -47.34375 44.5546875 C-49.87776729 44.02552507 -51.7629768 43.27679154 -54 42 C-53.67 39.69 -53.34 37.38 -53 35 C-49.25548659 34.11893802 -45.83487501 34 -42 34 C-39.63111827 33.10309052 -39.63111827 33.10309052 -38.875 29.875 C-36.86289459 24.92056958 -33.06316212 22.2854191 -29 19 C-27.62197375 17.753337 -26.24689789 16.50340383 -24.875 15.25 C-22.36957162 13.01636365 -20.70536586 11.87143238 -17.5625 10.5 C-16.716875 10.005 -15.87125 9.51 -15 9 C-14.02126462 5.40614946 -14.02126462 5.40614946 -14 2 C-9.15758367 0.66416101 -5.06562383 -0.25328119 0 0 Z " fill="#F0BD2C" transform="translate(134,32)"/>
<path d="M0 0 C7.48291572 6.15034169 7.48291572 6.15034169 10 10 C9.34 10 8.68 10 8 10 C8 17.59 8 25.18 8 33 C4.3690953 33.72618094 2.08030164 34.11397927 -1.44140625 33.94921875 C-2.26737305 33.91111084 -3.09333984 33.87300293 -3.94433594 33.83374023 C-4.80833008 33.78548096 -5.67232422 33.73722168 -6.5625 33.6875 C-7.4484082 33.64117432 -8.33431641 33.59484863 -9.24707031 33.54711914 C-15.94078937 33.15606246 -22.43007631 32.37541085 -29 31 C-29.54212136 24.72360907 -29.54212136 24.72360907 -27.19140625 21.5859375 C-26.32386719 20.85632813 -25.45632812 20.12671875 -24.5625 19.375 C-23.57636719 18.53839844 -22.59023438 17.70179687 -21.57421875 16.83984375 C-15.31519353 11.8149417 -8.92986355 6.95103014 -2.49951172 2.14819336 C-1.03543484 1.07927985 -1.03543484 1.07927985 0 0 Z " fill="#5798E2" transform="translate(65,45)"/>
<path d="M0 0 C4.51077009 -0.08478891 8.68296343 0.17489472 13.125 0.9375 C22.69663587 2.39810677 32.33427496 2.65963808 42 3 C39.90957743 9.56708221 37.86741436 15.95732685 33 21 C28.13712632 22.29792002 23.918571 21.84822579 19 21 C18.195625 20.88011719 17.39125 20.76023437 16.5625 20.63671875 C10.06982507 18.975507 7.31397691 13.39465103 4 8 C3.19223439 6.8300504 2.38068636 5.66268588 1.5625 4.5 C0 2 0 2 0 0 Z " fill="#599EEA" transform="translate(40,105)"/>
<path d="M0 0 C0 0.66 0 1.32 0 2 C0.556875 1.505 1.11375 1.01 1.6875 0.5 C4.38162983 -1.24754367 5.85375007 -1.26218749 9 -1 C8.34 -0.67 7.68 -0.34 7 0 C7 0.66 7 1.32 7 2 C6.01 2.66 5.02 3.32 4 4 C3.61781233 5.65614657 3.28604898 7.32457024 3 9 C2.34 9.99 1.68 10.98 1 12 C0.34 12 -0.32 12 -1 12 C-1 12.99 -1 13.98 -1 15 C-1.65226562 15.04898438 -2.30453125 15.09796875 -2.9765625 15.1484375 C-7.93279853 15.57242229 -12.33019451 16.15665573 -17 18 C-17 18.33 -17 18.66 -17 19 C-22.61 19 -28.22 19 -34 19 C-32.44856619 15.12141547 -30.80471181 11.47524813 -28.9375 7.75 C-28.41027344 6.69296875 -27.88304688 5.6359375 -27.33984375 4.546875 C-26 2 -26 2 -25 1 C-22.26920014 0.59467001 -19.55451593 0.24520752 -16.8125 -0.0625 C-16.05646484 -0.15337891 -15.30042969 -0.24425781 -14.52148438 -0.33789062 C-3.27124075 -1.63562038 -3.27124075 -1.63562038 0 0 Z " fill="#1749A1" transform="translate(120,82)"/>
<path d="M0 0 C1.26972656 -0.00257812 2.53945312 -0.00515625 3.84765625 -0.0078125 C6.9375 0.125 6.9375 0.125 7.9375 1.125 C8.01069621 3.82154854 8.02992537 6.49191458 8 9.1875 C7.99548828 9.94611328 7.99097656 10.70472656 7.98632812 11.48632812 C7.9745068 13.36591871 7.95657078 15.24546899 7.9375 17.125 C6.6175 17.455 5.2975 17.785 3.9375 18.125 C4.7109375 19.2078125 4.7109375 19.2078125 5.5 20.3125 C6.9375 23.125 6.9375 23.125 6.9375 25.4375 C5.45296966 29.4271753 2.65552319 31.34834102 -0.625 33.9375 C-1.54829102 34.69063477 -1.54829102 34.69063477 -2.49023438 35.45898438 C-4.00529085 36.69216988 -5.53272737 37.91011798 -7.0625 39.125 C-7.7225 38.795 -8.3825 38.465 -9.0625 38.125 C-9.0625 25.915 -9.0625 13.705 -9.0625 1.125 C-6.07566593 -0.36841703 -3.31850226 -0.00675178 0 0 Z " fill="#5399E3" transform="translate(108.0625,11.875)"/>
<path d="M0 0 C1.24337994 4.39788089 1.52491133 7.65025294 0 12 C-4.66364327 16.34753021 -10.58431567 19.20606496 -16.23413086 22.06713867 C-17.97304494 22.8747329 -17.97304494 22.8747329 -19 24 C-19.23678716 26.69235776 -19.42198025 29.36498156 -19.5625 32.0625 C-19.60568359 32.82111328 -19.64886719 33.57972656 -19.69335938 34.36132812 C-19.79973633 36.24065438 -19.90039934 38.12030244 -20 40 C-20.66 39.67 -21.32 39.34 -22 39 C-23.36531134 24.80750437 -23.36531134 24.80750437 -20.34765625 20.8125 C-17.96358044 19.27060211 -15.60903858 18.11925081 -13 17 C-11.12817566 16.05502644 -9.27317125 15.07591623 -7.4375 14.0625 C-6.59058594 13.64097656 -5.74367188 13.21945313 -4.87109375 12.78515625 C-2.58589864 11.00390996 -2.58589864 11.00390996 -2.72265625 7.30859375 C-2.81417969 6.21675781 -2.90570312 5.12492187 -3 4 C-5.66749883 5.56109307 -8.33400862 7.12383617 -11 8.6875 C-11.74378906 9.12255859 -12.48757812 9.55761719 -13.25390625 10.00585938 C-13.99511719 10.44091797 -14.73632812 10.87597656 -15.5 11.32421875 C-16.1703125 11.71697998 -16.840625 12.10974121 -17.53125 12.5144043 C-18.3459375 13.00465088 -19.160625 13.49489746 -20 14 C-20.66544327 14.20744843 -21.33088654 14.41489685 -22.01649475 14.62863159 C-24.78816525 15.74521979 -26.13048725 16.63751861 -28 19 C-29.35303323 25.14466699 -29.29880035 31.27621456 -29.30859375 37.546875 C-29.33177478 39.40148587 -29.35629562 41.25608044 -29.38209534 43.11065674 C-29.42546215 46.99800427 -29.43631577 50.88392177 -29.42749023 54.77148438 C-29.4210946 59.73876329 -29.51977913 64.69772734 -29.64646816 69.66315842 C-29.72821035 73.49501187 -29.74094713 77.32488106 -29.73466682 81.15750885 C-29.74222876 82.98686847 -29.77381063 84.81630076 -29.83047295 86.64479828 C-30.39696593 96.25859083 -30.39696593 96.25859083 -26.53239822 104.63169861 C-22.94935056 107.48878531 -19.02633991 109.41946102 -14.82271004 111.1958847 C-12.23561184 112.33722106 -9.88698738 113.8043638 -7.5 115.3125 C-4.83317925 116.91610721 -2.15467653 118.48358029 0.5625 120 C3.21987779 121.54611071 5.71688785 123.14441365 8.25 124.875 C13.29890678 128.29325813 18.61052734 131.15919385 24 134 C24.51177588 130.67392852 24.51177588 130.67392852 24 127 C21.88949418 125.15248556 20.32012808 124.1174266 17.875 122.875 C16.50589286 122.11830378 15.13744483 121.36041425 13.76953125 120.6015625 C12.63572021 119.98909668 12.63572021 119.98909668 11.47900391 119.36425781 C6.77351256 116.77470831 2.17865163 113.99455006 -2.4375 111.25 C-3.35998535 110.70714355 -4.2824707 110.16428711 -5.23291016 109.60498047 C-10.54061918 106.48138747 -15.79290883 103.28868916 -21 100 C-18 99 -18 99 -15.45068359 100.1965332 C-14.44344238 100.80843506 -13.43620117 101.42033691 -12.3984375 102.05078125 C-10.71391479 103.06156738 -10.71391479 103.06156738 -8.99536133 104.09277344 C-7.78793522 104.83163908 -6.58115953 105.57156854 -5.375 106.3125 C-2.93001133 107.80606447 -0.48303343 109.2963314 1.96484375 110.78515625 C2.56897598 111.15405975 3.17310822 111.52296326 3.79554749 111.90304565 C7.32129174 114.04006893 10.88200559 116.02240078 14.56640625 117.87109375 C18.72259381 119.98518733 22.46270827 121.93044932 26 125 C27.34929238 129.31567562 27.14146606 132.65795265 26 137 C22.07211802 135.54589791 18.58532755 133.69909033 14.9765625 131.578125 C14.10346939 131.06617584 14.10346939 131.06617584 13.21273804 130.54388428 C11.97288757 129.81589755 10.73402673 129.0862231 9.49609375 128.35498047 C7.09258631 126.93558137 4.68453691 125.52411705 2.2719574 124.12019348 C1.00955774 123.36966293 -0.24024379 122.59761431 -1.47789001 121.80693054 C-5.54495199 119.24801883 -9.46199322 117.41992861 -13.99438477 115.80395508 C-20.86788299 113.04327983 -26.63314559 110.16224776 -31 104 C-35.47800485 92.64382893 -34.53040368 79.10501877 -34.27319336 67.13452148 C-34.17007516 62.17904548 -34.29946007 57.26023091 -34.48795891 52.30845451 C-35.46987763 22.37201608 -35.46987763 22.37201608 -28.11920166 14.49029541 C-20.91844214 7.99577639 -12.02193967 4.24751337 -3 1 C-1 0 -1 0 0 0 Z " fill="#244889" transform="translate(33,29)"/>
<path d="M0 0 C0.66 0 1.32 0 2 0 C4.5997837 4.51531349 5.37225298 7.74391216 5.35644531 12.93579102 C5.35951187 13.93455261 5.35951187 13.93455261 5.36264038 14.95349121 C5.36562931 17.13724959 5.34722906 19.32023859 5.328125 21.50390625 C5.32506385 23.03034783 5.32319044 24.55679222 5.32244873 26.08323669 C5.31785751 29.27492038 5.30347702 32.46635011 5.28125 35.65795898 C5.25294474 39.74226537 5.24203441 43.82637239 5.2375679 47.91076756 C5.23340483 51.06009398 5.22358034 54.20938046 5.21169281 57.35868645 C5.20600976 58.86452862 5.20124465 60.37037456 5.19742584 61.87622261 C5.19052572 63.98208419 5.17687642 66.08779171 5.16113281 68.19360352 C5.15430481 69.39018082 5.14747681 70.58675812 5.14044189 71.81959534 C5.01447647 74.6721703 4.60004797 77.21859649 4 80 C4.04125 80.845625 4.0825 81.69125 4.125 82.5625 C3.96892581 85.60594669 3.08957565 86.83005606 1 89 C0.34 89 -0.32 89 -1 89 C-1 89.66 -1 90.32 -1 91 C-6.5522888 93.8352113 -10.80112515 94.37952295 -17 94 C-16.505 93.01 -16.505 93.01 -16 92 C-15.34 92 -14.68 92 -14 92 C-13.95875 91.38769531 -13.9175 90.77539062 -13.875 90.14453125 C-13 88 -13 88 -10.3125 86.76171875 C-8.10644779 86.04631267 -5.89809641 85.33795747 -3.6875 84.63671875 C-2.800625 84.09660156 -1.91375 83.55648437 -1 83 C0.04017682 78.09466243 0.13972257 73.22361496 0.11352539 68.22875977 C0.11367142 67.48646622 0.11381744 66.74417267 0.1139679 65.97938538 C0.11327674 63.55002824 0.10552203 61.12074983 0.09765625 58.69140625 C0.09578923 56.99747255 0.09436667 55.30353831 0.09336853 53.60960388 C0.08956568 49.16926562 0.07975462 44.7289605 0.06866455 40.28863525 C0.05840227 35.75037077 0.05386062 31.21210089 0.04882812 26.67382812 C0.0381302 17.78253759 0.0210808 8.89127156 0 0 Z " fill="#F1BD2A" transform="translate(145,47)"/>
<path d="M0 0 C0.66 0 1.32 0 2 0 C0.89605152 3.31184543 0.03427096 4.10194155 -2.5625 6.3125 C-3.27792969 6.92222656 -3.99335937 7.53195313 -4.73046875 8.16015625 C-7.52587786 10.42631407 -10.40092218 12.55921972 -13.3359375 14.640625 C-15.26673298 16.08219743 -15.26673298 16.08219743 -17 19 C-17.66 19 -18.32 19 -19 19 C-19.268125 20.11375 -19.53625 21.2275 -19.8125 22.375 C-21 26 -21 26 -24 28 C-26.48046875 28.1953125 -26.48046875 28.1953125 -29.1875 28.125 C-30.08855469 28.10695313 -30.98960938 28.08890625 -31.91796875 28.0703125 C-32.60503906 28.04710938 -33.29210937 28.02390625 -34 28 C-34.33 30.31 -34.66 32.62 -35 35 C-30.1244519 36.6251827 -25.13663927 37.26214573 -20 37 C-17.16291244 34.79776535 -17.16291244 34.79776535 -16 32 C-16 32.99 -16 33.98 -16 35 C-11.05 35 -6.1 35 -1 35 C-0.67 28.07 -0.34 21.14 0 14 C1.32 13.67 2.64 13.34 4 13 C4.33 12.01 4.66 11.02 5 10 C5.66 10 6.32 10 7 10 C6.566875 10.7734375 6.566875 10.7734375 6.125 11.5625 C3.29116807 17.70246918 2.81768113 22.64816966 3.125 29.3515625 C2.98059257 32.41119487 2.52673571 34.33730021 1 37 C-2.87838606 39.27401772 -6.82447211 39.38311892 -11.25 39.625 C-12.27770508 39.68192017 -12.27770508 39.68192017 -13.32617188 39.73999023 C-21.21418776 40.13349872 -29.10501511 40.08793919 -37 40 C-38.32 37.03 -39.64 34.06 -41 31 C-41.33 33.64 -41.66 36.28 -42 39 C-42.33 39 -42.66 39 -43 39 C-43 31.41 -43 23.82 -43 16 C-37.31950236 17.13609953 -35.92827105 18.65785252 -32.0625 22.6015625 C-30.07637381 24.23047272 -30.07637381 24.23047272 -27.54296875 23.99609375 C-24.28801241 22.72111085 -22.68092067 21.00165791 -20.3125 18.4375 C-16.18940012 14.12978371 -11.90925777 10.40700797 -7.19921875 6.76171875 C-5.32327759 5.25896659 -3.65685454 3.73459551 -2 2 C-1.34 1.34 -0.68 0.68 0 0 Z " fill="#BDA04B" transform="translate(116,39)"/>
<path d="M0 0 C3 2.375 3 2.375 5 5 C5 5.66 5 6.32 5 7 C2.69 7 0.38 7 -2 7 C-2.33 7.66 -2.66 8.32 -3 9 C-0.69 9 1.62 9 4 9 C4.13277344 9.69867188 4.26554687 10.39734375 4.40234375 11.1171875 C4.57894531 12.02726563 4.75554687 12.93734375 4.9375 13.875 C5.11152344 14.77992188 5.28554687 15.68484375 5.46484375 16.6171875 C5.89963701 18.99956317 5.89963701 18.99956317 7 21 C7.14341073 25.44573272 7.08426868 28.66292528 6 33 C1.38 33 -3.24 33 -8 33 C-7.01 32.505 -7.01 32.505 -6 32 C-6 30.35 -6 28.7 -6 27 C-6.99 26.67 -7.98 26.34 -9 26 C-8.01 26 -7.02 26 -6 26 C-6 24.68 -6 23.36 -6 22 C-5.34 22 -4.68 22 -4 22 C-4.33 21.01 -4.66 20.02 -5 19 C-6.65204456 18.29788106 -8.31923769 17.63028587 -10 17 C-11.42247747 14.15504507 -11.20793601 11.6688204 -11.25 8.5 C-11.27578125 7.3346875 -11.3015625 6.169375 -11.328125 4.96875 C-11.16570312 3.49921875 -11.16570312 3.49921875 -11 2 C-7.32995329 -0.4466978 -4.26442613 -0.83795144 0 0 Z " fill="#1C4887" transform="translate(80,137)"/>
<path d="M0 0 C0.495 0.99 0.495 0.99 1 2 C-0.10194873 3.61475712 -1.26176691 5.19015307 -2.4453125 6.74609375 C-6.96815623 13.6109246 -6.37751089 19.11548194 -5.875 27.0625 C-5.66270133 39.10810822 -5.66270133 39.10810822 -8.54003906 43.17871094 C-12.50568972 46.58149505 -17.05661298 48.49649748 -21.94335938 50.23291016 C-24.58919079 51.21975753 -26.8708356 52.61576816 -29.25 54.125 C-32.33699858 55.97464791 -34.42524344 56.06956204 -38 56 C-37.99363525 54.75500732 -37.98727051 53.51001465 -37.98071289 52.22729492 C-37.96616896 47.56193876 -37.99783493 42.89779734 -38.04272461 38.23266602 C-38.05578004 36.22229163 -38.05667657 34.21179698 -38.04467773 32.20141602 C-37.80815349 15.77299005 -37.80815349 15.77299005 -46 2 C-42.40321617 0.92573934 -39.57177834 1.27335759 -35.859375 1.734375 C-23.77881183 2.85661311 -11.95919866 1.65771071 0 0 Z M-43 3 C-42.57702637 3.62551758 -42.15405273 4.25103516 -41.71826172 4.89550781 C-35.79230195 14.89676073 -36.10491037 24.41543128 -36.125 35.75 C-36.10684002 37.62242367 -36.08602709 39.49482358 -36.0625 41.3671875 C-36.01109171 45.91176265 -35.99553802 50.45515038 -36 55 C-32.46238077 53.66252058 -29.23255793 52.09562161 -25.953125 50.21484375 C-25.02628906 49.68439453 -24.09945312 49.15394531 -23.14453125 48.60742188 C-22.18933594 48.05634766 -21.23414062 47.50527344 -20.25 46.9375 C-19.27933594 46.38255859 -18.30867188 45.82761719 -17.30859375 45.25585938 C-12.90558432 42.97105935 -12.90558432 42.97105935 -9 40 C-8.91488434 38.20219118 -8.89181422 36.40138301 -8.89453125 34.6015625 C-8.87970703 33.48136719 -8.86488281 32.36117187 -8.84960938 31.20703125 C-8.82527572 28.85819319 -8.81941949 26.5090752 -8.83398438 24.16015625 C-8.67513033 15.69756802 -6.68855549 10.03773665 -2 3 C-4.41700987 3.14129287 -6.83350429 3.28786487 -9.25 3.4375 C-10.27287109 3.49647461 -10.27287109 3.49647461 -11.31640625 3.55664062 C-14.64448041 3.76666472 -17.80255402 4.01934002 -21 5 C-21 5.66 -21 6.32 -21 7 C-18.03 7.495 -18.03 7.495 -15 8 C-15 11.63 -15 15.26 -15 19 C-15.33 18.67 -15.66 18.34 -16 18 C-18.33297433 17.95907063 -20.66705225 17.95758277 -23 18 C-22.67 17.34 -22.34 16.68 -22 16 C-19.69 16 -17.38 16 -15 16 C-16.24976756 12.34683329 -16.67098753 11.21934164 -20 9 C-21.65549531 8.61500109 -23.3222433 8.27206865 -25 8 C-24.34 7.01 -23.68 6.02 -23 5 C-25.39531756 4.66254646 -27.79114268 4.3299171 -30.1875 4 C-30.86103516 3.90460938 -31.53457031 3.80921875 -32.22851562 3.7109375 C-35.85455899 3.21567304 -39.3448619 2.95586248 -43 3 Z " fill="#19366D" transform="translate(100,128)"/>
<path d="M0 0 C5.28 0 10.56 0 16 0 C18.35763098 16.50341686 18.35763098 16.50341686 15.8359375 21.140625 C13.6211121 23.57125391 11.81858838 24.93860587 8.5 25.1875 C5.13340942 23.58836947 2.25833119 21.98990936 0 19 C-0.73206647 15.69796778 -0.57052276 12.54898742 -0.375 9.1875 C-0.34792969 8.30384766 -0.32085937 7.42019531 -0.29296875 6.50976562 C-0.22255869 4.33878886 -0.11494606 2.16907471 0 0 Z " fill="#579AE4" transform="translate(79,36)"/>
<path d="M0 0 C-0.4323999 0.64106689 -0.8647998 1.28213379 -1.31030273 1.94262695 C-6.07568953 9.66869577 -6.48250904 15.28626702 -6.0625 24.1875 C-5.95864005 35.35049244 -5.95864005 35.35049244 -8.23242188 38.95214844 C-12.59453264 43.07191971 -18.23763558 44.73370263 -24 46 C-24.33 44.68 -24.66 43.36 -25 42 C-26.32 41.67 -27.64 41.34 -29 41 C-28.67 40.01 -28.34 39.02 -28 38 C-22.72 38.33 -17.44 38.66 -12 39 C-11.95875 37.123125 -11.9175 35.24625 -11.875 33.3125 C-11.85179688 32.25675781 -11.82859375 31.20101562 -11.8046875 30.11328125 C-12.00243852 26.96112997 -12.77267632 24.87530264 -14 22 C-13.71325582 19.99279077 -13.36920191 17.99369031 -13 16 C-12.9037359 12.33183112 -12.94124889 8.66868034 -13 5 C-15.97 4.505 -15.97 4.505 -19 4 C-19 3.34 -19 2.68 -19 2 C-12.6221448 0.82706111 -6.49678438 -0.29530838 0 0 Z " fill="#1B4080" transform="translate(98,131)"/>
<path d="M0 0 C0.66 0.33 1.32 0.66 2 1 C2 14.86 2 28.72 2 43 C-1.04951395 41.47524303 -3.36399506 40.07114674 -6 38 C-9.1847097 39.45153435 -11.72250309 41.23528497 -14.4375 43.4375 C-15.30375 44.13746094 -16.17 44.83742187 -17.0625 45.55859375 C-19.209233 47.34278009 -21.33032416 49.14295652 -23.4375 50.97265625 C-24.01830322 51.47418213 -24.59910645 51.97570801 -25.19750977 52.49243164 C-26.3444832 53.48619633 -27.48577162 54.48656621 -28.62084961 55.49389648 C-32.66740253 59 -32.66740253 59 -36 59 C-36.22320235 53.84078257 -36.38610225 48.68439491 -36.49438477 43.52148438 C-36.53953126 41.76740561 -36.60086921 40.01366349 -36.67895508 38.26074219 C-37.30973573 23.73217339 -37.30973573 23.73217339 -34.21362305 19.63745117 C-31.86756335 18.06116498 -29.62946341 17.02305151 -27 16 C-25.73858115 15.25585589 -24.49090668 14.48766313 -23.26171875 13.69140625 C-22.07195615 12.97901854 -20.88053243 12.26939808 -19.6875 11.5625 C-19.05303955 11.18561035 -18.4185791 10.8087207 -17.76489258 10.42041016 C-16.47271452 9.65353795 -15.17999726 8.8875735 -13.88671875 8.12255859 C-12.06292693 7.03744022 -10.24929099 5.93704136 -8.4375 4.83203125 C-7.365 4.18621094 -6.2925 3.54039063 -5.1875 2.875 C-4.23230469 2.29492188 -3.27710938 1.71484375 -2.29296875 1.1171875 C-1.53628906 0.74851562 -0.77960938 0.37984375 0 0 Z M-7.99291992 6.36962891 C-11.66513339 8.7612731 -15.1896464 10.5036473 -19.3125 12.0078125 C-25.16153765 14.38989069 -30.42617565 16.58004806 -34 22 C-36.54458965 33.06331189 -35.21146589 44.81351038 -34 56 C-30.55202999 54.3508917 -27.87945295 52.39418236 -24.9375 49.9375 C-23.98101562 49.1434375 -23.02453125 48.349375 -22.0390625 47.53125 C-21.03617188 46.6959375 -20.03328125 45.860625 -19 45 C-16.94104333 43.30812444 -14.87669654 41.62299381 -12.8125 39.9375 C-11.89082031 39.18339844 -10.96914063 38.42929687 -10.01953125 37.65234375 C-9.35308594 37.10707031 -8.68664062 36.56179687 -8 36 C-5.0280615 37.12451727 -2.66559313 38.22293791 0 40 C0 27.46 0 14.92 0 2 C-2.74824761 2 -5.75345652 4.87752094 -7.99291992 6.36962891 Z " fill="#274985" transform="translate(72,5)"/>
<path d="M0 0 C0.33 6.93 0.66 13.86 1 21 C-1.0625 20.855625 -3.125 20.71125 -5.25 20.5625 C-6.41015625 20.48128906 -7.5703125 20.40007812 -8.765625 20.31640625 C-11.30977376 20.06752213 -13.55953248 19.71885058 -16 19 C-16.33203125 15.83203125 -16.33203125 15.83203125 -16 12 C-13.69921875 9.19921875 -13.69921875 9.19921875 -10.6875 6.6875 C-9.70136719 5.84574219 -8.71523438 5.00398438 -7.69921875 4.13671875 C-2.47349177 0 -2.47349177 0 0 0 Z " fill="#1548A1" transform="translate(52,57)"/>
<path d="M0 0 C0.33 1.32 0.66 2.64 1 4 C-0.32 4.33 -1.64 4.66 -3 5 C-3 5.66 -3 6.32 -3 7 C8.18028962 16.25265348 31.47841945 13.25537846 45.25 13.5625 C47.07422649 13.60579498 48.89844535 13.64941233 50.72265625 13.69335938 C55.14835847 13.79928691 59.57414071 13.90086126 64 14 C63.67 14.66 63.34 15.32 63 16 C20.89637366 16.53867448 20.89637366 16.53867448 4 13 C3.01 13 2.02 13 1 13 C-0.32 13 -1.64 13 -3 13 C-2.67 13.99 -2.34 14.98 -2 16 C-1.34 15.67 -0.68 15.34 0 15 C0.66 18.3 1.32 21.6 2 25 C-4.11360888 19.62743462 -9.87060954 12.20294123 -11 4 C-3.57142857 0.71428571 -3.57142857 0.71428571 0 0 Z " fill="#3064BF" transform="translate(31,69)"/>
<path d="M0 0 C0.33 0.99 0.66 1.98 1 3 C-1.10260341 4.14878332 -3.20696539 5.29411192 -5.3125 6.4375 C-5.90740234 6.76298828 -6.50230469 7.08847656 -7.11523438 7.42382812 C-9.72373626 8.83737384 -12.17845899 10.05948633 -15 11 C-15.33 11.99 -15.66 12.98 -16 14 C-17.77734375 14.95703125 -17.77734375 14.95703125 -19.9375 15.8125 C-23.3397387 17.37667772 -23.8435329 17.66098795 -25.5 21.25 C-25.665 22.1575 -25.83 23.065 -26 24 C-24.98679687 23.58427734 -24.98679687 23.58427734 -23.953125 23.16015625 C-23.06109375 22.79792969 -22.1690625 22.43570313 -21.25 22.0625 C-20.36828125 21.70285156 -19.4865625 21.34320313 -18.578125 20.97265625 C-16 20 -16 20 -13.734375 19.55859375 C-13.16203125 19.37425781 -12.5896875 19.18992188 -12 19 C-11.67 18.01 -11.34 17.02 -11 16 C-9.39716822 15.28384112 -7.78758073 14.58011845 -6.15234375 13.94140625 C-3.66999586 12.85566062 -1.43782865 11.53578939 0.875 10.125 C1.71933594 9.61066406 2.56367188 9.09632813 3.43359375 8.56640625 C4.28050781 8.04949219 5.12742188 7.53257812 6 7 C7.63814583 6.00802572 9.28358625 5.02795534 10.9375 4.0625 C11.64777344 3.64097656 12.35804688 3.21945313 13.08984375 2.78515625 C15 2 15 2 18 3 C8.99121094 8.40527344 8.99121094 8.40527344 -0.01757812 13.81054688 C-0.66939056 14.20190826 -1.321203 14.59326965 -1.99276733 14.99649048 C-3.31554361 15.78960167 -4.63930061 16.58107942 -5.96401978 17.37094116 C-9.40173643 19.4235902 -12.81612061 21.50488511 -16.20263672 23.64111328 C-16.88136337 24.06368912 -17.56009003 24.48626495 -18.25938416 24.92164612 C-19.55446859 25.72899874 -20.84355583 26.5460771 -22.12550354 27.37413025 C-26.46207028 30.05774571 -26.46207028 30.05774571 -29.42211914 29.73999023 C-29.94281982 29.49579346 -30.46352051 29.25159668 -31 29 C-31.16374356 27.6081797 -31.27920565 26.21064132 -31.375 24.8125 C-31.44460937 24.03519531 -31.51421875 23.25789063 -31.5859375 22.45703125 C-30.45351992 17.70842687 -26.05694393 15.67052552 -22.16259766 13.19995117 C-18.83549667 11.16324426 -15.48526328 9.16869842 -12.125 7.1875 C-10.94763007 6.48811244 -9.77054414 5.78824658 -8.59375 5.08789062 C-5.73191843 3.38721203 -2.86730718 1.69142482 0 0 Z " fill="#CBAE4D" transform="translate(126,136)"/>
<path d="M0 0 C7.875 6.75 7.875 6.75 10 10 C9.34 10 8.68 10 8 10 C8 17.59 8 25.18 8 33 C3 34 3 34 1 33 C0.67 22.11 0.34 11.22 0 0 Z " fill="#14376E" transform="translate(65,45)"/>
<path d="M0 0 C1.72990025 0.93614567 3.45888696 1.87397958 5.1875 2.8125 C6.15042969 3.33457031 7.11335938 3.85664062 8.10546875 4.39453125 C9.06066406 4.92433594 10.01585938 5.45414063 11 6 C11.92683594 6.49113281 12.85367188 6.98226563 13.80859375 7.48828125 C16 9 16 9 16.875 12.375 C16.98349401 15.52132642 16.82300154 17.9823277 16 21 C3.83389874 16.28253216 3.83389874 16.28253216 -1 12 C-2.08859837 8.15327019 -1.89240915 4.87828938 -1 1 C-0.67 0.67 -0.34 0.34 0 0 Z " fill="#3771BD" transform="translate(80,3)"/>
<path d="M0 0 C0.6633449 5.06407205 0.6633449 5.06407205 0 8 C-2.19800793 10.39913284 -4.83812389 11.78737702 -7.6875 13.3125 C-8.40873047 13.72822266 -9.12996094 14.14394531 -9.87304688 14.57226562 C-11.27079359 15.37517218 -12.67540768 16.16627073 -14.08740234 16.94384766 C-16.42823329 18.23647398 -18.71683939 19.60848791 -21 21 C-21.33 19.68 -21.66 18.36 -22 17 C-22.99 17 -23.98 17 -25 17 C-25.33 19.31 -25.66 21.62 -26 24 C-26.33 24 -26.66 24 -27 24 C-27.49372454 20.85378291 -27.78122383 19.0164861 -27 16 C-24.36414391 13.28160466 -21.22778979 11.58305754 -17.9375 9.75 C-16.66616211 8.99589844 -16.66616211 8.99589844 -15.36914062 8.2265625 C-12.92900955 6.78697938 -10.46854938 5.3901265 -8 4 C-6.64696669 3.21383198 -5.29408113 2.42740957 -3.94140625 1.640625 C-1 0 -1 0 0 0 Z " fill="#2F63C4" transform="translate(31,32)"/>
<path d="M0 0 C0.33 0 0.66 0 1 0 C1.06058594 1.26457031 1.12117187 2.52914062 1.18359375 3.83203125 C1.26800904 5.49219871 1.35265655 7.15235437 1.4375 8.8125 C1.47681641 9.64587891 1.51613281 10.47925781 1.55664062 11.33789062 C1.61948242 12.54155273 1.61948242 12.54155273 1.68359375 13.76953125 C1.72025146 14.50792236 1.75690918 15.24631348 1.79467773 16.00708008 C1.94842141 18.207495 1.94842141 18.207495 3 21 C3.0919631 22.572611 3.12790671 24.14882419 3.12939453 25.72412109 C3.13254669 26.68297211 3.13569885 27.64182312 3.13894653 28.62973022 C3.1369223 29.66715363 3.13489807 30.70457703 3.1328125 31.7734375 C3.13376923 32.84816315 3.13472595 33.92288879 3.13571167 35.03018188 C3.13639301 37.31162576 3.13454192 39.59307156 3.13037109 41.87451172 C3.12507435 45.32654326 3.13029039 48.77844155 3.13671875 52.23046875 C3.15256886 82.60080442 3.15256886 82.60080442 0.4597168 85.86987305 C-1.90158719 87.66538782 -3.96468526 89 -7 89 C-7 88.34 -7 87.68 -7 87 C-2.61538462 84 -2.61538462 84 0 84 C0 56.28 0 28.56 0 0 Z " fill="#D1B04E" transform="translate(151,49)"/>
<path d="M0 0 C2.0625 0.4375 2.0625 0.4375 4 1 C5.36991713 5.45223068 5.36939575 10.07096129 5.60546875 14.6875 C5.77044485 18.46903331 5.77044485 18.46903331 7 22 C7.09072287 23.7566923 7.11754144 25.5168501 7.11352539 27.27587891 C7.11344986 28.3768692 7.11337433 29.4778595 7.11329651 30.61221313 C7.10813522 31.80494843 7.10297394 32.99768372 7.09765625 34.2265625 C7.0962413 35.44451508 7.09482635 36.66246765 7.09336853 37.91732788 C7.08775639 41.8199099 7.07520179 45.72243523 7.0625 49.625 C7.05748657 52.26562417 7.05292339 54.90624924 7.04882812 57.546875 C7.03778301 64.03126945 7.02103302 70.51563068 7 77 C6.34 77 5.68 77 5 77 C4.15025114 62.9020245 3.87216863 48.87143782 3.9375 34.75 C3.94253539 32.81770952 3.94709462 30.88541774 3.95117188 28.953125 C3.96199224 24.30205008 3.979139 19.65104027 4 15 C1.7763932 16.9254644 1.7763932 16.9254644 1 20 C0.01 20.33 -0.98 20.66 -2 21 C-2.19181946 6.82667294 -2.19181946 6.82667294 -1 1 C-0.67 0.67 -0.34 0.34 0 0 Z " fill="#2655AE" transform="translate(6,48)"/>
<path d="M0 0 C1.26972656 -0.00257812 2.53945312 -0.00515625 3.84765625 -0.0078125 C6.9375 0.125 6.9375 0.125 7.9375 1.125 C8.01069621 3.82154854 8.02992537 6.49191458 8 9.1875 C7.99548828 9.94611328 7.99097656 10.70472656 7.98632812 11.48632812 C7.9745068 13.36591871 7.95657078 15.24546899 7.9375 17.125 C6.6175 17.455 5.2975 17.785 3.9375 18.125 C3.9375 17.465 3.9375 16.805 3.9375 16.125 C4.5975 15.795 5.2575 15.465 5.9375 15.125 C6.40704261 12.07918731 6.40704261 12.07918731 6.5625 8.5625 C6.63726562 7.36496094 6.71203125 6.16742188 6.7890625 4.93359375 C6.83804688 4.00675781 6.88703125 3.07992188 6.9375 2.125 C2.28697128 1.85567479 2.28697128 1.85567479 -2.0625 3.125 C-3.7125 2.795 -5.3625 2.465 -7.0625 2.125 C-6.7325 13.015 -6.4025 23.905 -6.0625 35.125 C0.93257199 29.93236327 0.93257199 29.93236327 3.9375 23.125 C3.65010075 20.88259218 3.65010075 20.88259218 2.9375 19.125 C5 20.8125 5 20.8125 6.9375 23.125 C6.97525495 25.88111144 6.500899 27.50737345 4.62866211 29.55981445 C2.9227035 31.08515115 1.17129271 32.51977267 -0.625 33.9375 C-1.54829102 34.69063477 -1.54829102 34.69063477 -2.49023438 35.45898438 C-4.00529085 36.69216988 -5.53272737 37.91011798 -7.0625 39.125 C-7.7225 38.795 -8.3825 38.465 -9.0625 38.125 C-9.0625 25.915 -9.0625 13.705 -9.0625 1.125 C-6.07566593 -0.36841703 -3.31850226 -0.00675178 0 0 Z " fill="#557FA7" transform="translate(108.0625,11.875)"/>
<path d="M0 0 C0.58152832 0.08564209 1.16305664 0.17128418 1.76220703 0.25952148 C16.17919398 2.34830623 30.43777217 3.61107227 45 4 C45 4.66 45 5.32 45 6 C30.67456282 6.39188126 17.12702927 5.40460073 3 3 C3.79664063 4.19496094 3.79664063 4.19496094 4.609375 5.4140625 C11 15 11 15 13.0859375 18.31640625 C15.09393347 21.13169856 16.29504761 21.96873014 19.65234375 22.69921875 C25.08007925 23.39461914 30.53782322 23.71211828 36 24 C36 24.66 36 25.32 36 26 C18.61938959 26.67863555 18.61938959 26.67863555 13.03125 22.54296875 C11.11074688 20.46969834 9.56537764 18.35524709 8 16 C7.27296875 14.906875 6.5459375 13.81375 5.796875 12.6875 C0 3.68619594 0 3.68619594 0 0 Z " fill="#4975A4" transform="translate(37,102)"/>
<path d="M0 0 C0.495 0.99 0.495 0.99 1 2 C-0.46544395 4.66770612 -1.98140757 7.19533544 -3.625 9.75 C-4.06457031 10.45382813 -4.50414062 11.15765625 -4.95703125 11.8828125 C-6.26724567 13.94995431 -7.61804419 15.98021843 -9 18 C-9.39944824 18.59570801 -9.79889648 19.19141602 -10.21044922 19.80517578 C-12.34650828 22.70704124 -13.78183731 23.93113419 -17.2421875 25.0234375 C-18.44101563 25.13945313 -19.63984375 25.25546875 -20.875 25.375 C-22.83759766 25.56835938 -22.83759766 25.56835938 -24.83984375 25.765625 C-31.22656711 26.18383037 -37.60364247 26.16331126 -44 26 C-44 25.34 -44 24.68 -44 24 C-42.75605469 23.95101562 -41.51210937 23.90203125 -40.23046875 23.8515625 C-35.92963034 23.67079322 -31.63699576 23.40983148 -27.34179688 23.12695312 C-25.44383091 23.02406089 -23.54135735 23.00678438 -21.640625 23.015625 C-17.80210557 22.81593324 -15.28078975 22.39714412 -12.59716797 19.46972656 C-8.87284498 14.65416058 -5.72167807 9.44335615 -3 4 C-3.72960937 4.06058594 -4.45921875 4.12117188 -5.2109375 4.18359375 C-14.79949681 4.95304604 -24.39449445 5.49331228 -34 6 C-34.33 5.34 -34.66 4.68 -35 4 C-34.1529248 3.91435791 -33.30584961 3.82871582 -32.43310547 3.74047852 C-29.26839602 3.41958746 -26.10386915 3.0969642 -22.93945312 2.77319336 C-21.57396316 2.63383458 -20.20840403 2.4951517 -18.84277344 2.35717773 C-16.87156087 2.15789822 -14.90062102 1.95592694 -12.9296875 1.75390625 C-11.74616699 1.63345947 -10.56264648 1.5130127 -9.34326172 1.38891602 C-6.20544737 1.02389935 -3.11038705 0.54877002 0 0 Z " fill="#254B75" transform="translate(117,102)"/>
<path d="M0 0 C0.66 0.33 1.32 0.66 2 1 C2 11.23 2 21.46 2 32 C-2.29 32 -6.58 32 -11 32 C-14.03897893 25.92204215 -14.45251258 16.54361569 -13 10 C-9.93010028 5.21946706 -4.93875365 2.54644015 0 0 Z M0 2 C-1.35439668 4.70879335 -1.06501451 7.00933268 -1 10 C-4.3 10.66 -7.6 11.32 -11 12 C-11 17.94 -11 23.88 -11 30 C-7.10402133 31.47434165 -7.10402133 31.47434165 1 31 C1 21.43 1 11.86 1 2 C0.67 2 0.34 2 0 2 Z " fill="#447BC0" transform="translate(64,46)"/>
<path d="M0 0 C0 12.54 0 25.08 0 38 C-0.99 37.505 -0.99 37.505 -2 37 C-1.99476318 36.26362305 -1.98952637 35.52724609 -1.98413086 34.76855469 C-1.96333133 31.42904515 -1.95033032 28.08954926 -1.9375 24.75 C-1.92493164 23.01169922 -1.92493164 23.01169922 -1.91210938 21.23828125 C-1.90888672 20.12324219 -1.90566406 19.00820313 -1.90234375 17.859375 C-1.89710693 16.83295898 -1.89187012 15.80654297 -1.88647461 14.74902344 C-1.98834135 12.28231473 -2.08017473 10.28984091 -3 8 C-5.81784201 6.71696609 -5.81784201 6.71696609 -7.8671875 7.671875 C-8.86105469 8.20554687 -8.86105469 8.20554687 -9.875 8.75 C-10.926875 9.31267578 -10.926875 9.31267578 -12 9.88671875 C-12.66 10.25410156 -13.32 10.62148438 -14 11 C-15.423125 11.7734375 -15.423125 11.7734375 -16.875 12.5625 C-19.26055148 13.98092667 -19.26055148 13.98092667 -21 17 C-22.66128463 17.35919668 -24.32900023 17.68911632 -26 18 C-28.76802871 19.01077927 -28.76802871 19.01077927 -31 21 C-32.36900354 24.57996259 -32.36900354 24.57996259 -33 28 C-33.33 28 -33.66 28 -34 28 C-34.66165668 22.92191949 -34.66165668 22.92191949 -34 20 C-31.80658883 17.67274046 -29.15323834 16.41524584 -26.3125 15 C-24.75316867 14.15761391 -23.1945827 13.31384671 -21.63671875 12.46875 C-20.85603027 12.05753906 -20.0753418 11.64632813 -19.27099609 11.22265625 C-15.97185511 9.44646854 -12.79873078 7.48918556 -9.625 5.5 C-8.60664062 4.8709375 -7.58828125 4.241875 -6.5390625 3.59375 C-0.81372549 0 -0.81372549 0 0 0 Z " fill="#3165C2" transform="translate(72,7)"/>
<path d="M0 0 C0.1799928 5.21979128 -0.02905192 9.07262981 -2 14 C-2.99 14 -3.98 14 -5 14 C-5.33 14.99 -5.66 15.98 -6 17 C-7.093125 17.103125 -8.18625 17.20625 -9.3125 17.3125 C-12.98536808 17.99727202 -13.75237686 18.27919304 -16 21 C-16.66 21 -17.32 21 -18 21 C-17.98839844 22.18078125 -17.97679688 23.3615625 -17.96484375 24.578125 C-17.95546248 26.13541508 -17.94636264 27.69270688 -17.9375 29.25 C-17.92912109 30.02730469 -17.92074219 30.80460937 -17.91210938 31.60546875 C-17.90888672 32.35957031 -17.90566406 33.11367187 -17.90234375 33.890625 C-17.89710693 34.58188477 -17.89187012 35.27314453 -17.88647461 35.98535156 C-18.00759594 38.13479935 -18.3014766 39.9620201 -19 42 C-21.70879335 43.35439668 -24.00933268 43.06501451 -27 43 C-27 42.67 -27 42.34 -27 42 C-25.35 42 -23.7 42 -22 42 C-21.67 34.41 -21.34 26.82 -21 19 C-16 17 -16 17 -14.015625 16.21875 C-10.32777584 14.9203901 -10.32777584 14.9203901 -8 12 C-6.68 12 -5.36 12 -4 12 C-4 11.34 -4 10.68 -4 10 C-3.34 10 -2.68 10 -2 10 C-2.33 7.03 -2.66 4.06 -3 1 C-1 0 -1 0 0 0 Z " fill="#EEBF3C" transform="translate(134,32)"/>
<path d="M0 0 C0 3.63 0 7.26 0 11 C-11.25 11.26785714 -11.25 11.26785714 -15 9 C-14.67 6.69 -14.34 4.38 -14 2 C-10.25548659 1.11893802 -6.83487501 1 -3 1 C-1 0 -1 0 0 0 Z " fill="#DBAB2E" transform="translate(95,65)"/>
<path d="M0 0 C-0.33 0.66 -0.66 1.32 -1 2 C-1.0689472 3.37342831 -1.08467708 4.75002102 -1.0625 6.125 C-1.041875 7.40375 -1.02125 8.6825 -1 10 C-1.66 10 -2.32 10 -3 10 C-3 10.66 -3 11.32 -3 12 C-4.11375 11.979375 -5.2275 11.95875 -6.375 11.9375 C-9.83215921 11.73619282 -9.83215921 11.73619282 -12 13 C-12.66 12.67 -13.32 12.34 -14 12 C-13.67 8.7 -13.34 5.4 -13 2 C-4.57142857 -0.28571429 -4.57142857 -0.28571429 0 0 Z " fill="#F4BC23" transform="translate(133,32)"/>
<path d="M0 0 C4.87209709 0.97441942 5.74598279 1.26603921 9.0625 4.4375 C11.59249184 6.83723484 13.80206062 8.58265048 17 10 C13.78600767 10.08927756 11.0937211 9.8534403 8 9 C7.34 9 6.68 9 6 9 C6 11.64 6 14.28 6 17 C5.34 17.33 4.68 17.66 4 18 C3.34 17.01 2.68 16.02 2 15 C1.67 17.64 1.34 20.28 1 23 C0.67 23 0.34 23 0 23 C0 15.41 0 7.82 0 0 Z " fill="#B09645" transform="translate(73,55)"/>
<path d="M0 0 C0.66 0 1.32 0 2 0 C1.566875 0.7734375 1.566875 0.7734375 1.125 1.5625 C-1.71050323 7.70609033 -2.19094986 12.73906289 -1.97265625 19.44921875 C-1.99816133 21.82847807 -2.3151285 23.73302224 -3 26 C-8.15946865 27.7041678 -12.4425333 28.22225605 -17.9375 28.125 C-18.62134766 28.11597656 -19.30519531 28.10695313 -20.00976562 28.09765625 C-21.67333287 28.07438958 -23.33671631 28.03853167 -25 28 C-24.01 26.02 -23.02 24.04 -22 22 C-21.67 22.99 -21.34 23.98 -21 25 C-16.05 25 -11.1 25 -6 25 C-5.67 18.07 -5.34 11.14 -5 4 C-3.68 3.67 -2.36 3.34 -1 3 C-0.67 2.01 -0.34 1.02 0 0 Z " fill="#D6BE70" transform="translate(121,49)"/>
<path d="M0 0 C0.99 0 1.98 0 3 0 C3 0.66 3 1.32 3 2 C3.71760498 1.98259766 4.43520996 1.96519531 5.17456055 1.94726562 C12.84548147 1.84324474 20.21719444 2.47498004 27.8125 3.5 C37.3742001 4.78719637 37.3742001 4.78719637 47 5 C47.33 4.01 47.66 3.02 48 2 C49.98 2.33 51.96 2.66 54 3 C53.67 4.32 53.34 5.64 53 7 C15.46908175 7.7720646 15.46908175 7.7720646 2 3 C1.34 2.01 0.68 1.02 0 0 Z " fill="#295CB9" transform="translate(33,95)"/>
<path d="M0 0 C0 2.64 0 5.28 0 8 C2.31 8 4.62 8 7 8 C5.75023244 11.65316671 5.32901247 12.78065836 2 15 C-1.20497244 14.83564244 -2.74461918 14.19326116 -5.3125 12.25 C-7 10 -7 10 -7.5625 7.5625 C-6.74326989 3.83045171 -4.1159865 0 0 0 Z " fill="#D1BD6F" transform="translate(77,138)"/>
<path d="M0 0 C0 3.96 0 7.92 0 12 C0.99 12 1.98 12 3 12 C3 8.37 3 4.74 3 1 C5 3 5 3 5.1953125 5.3828125 C5.13020833 7.921875 5.06510417 10.4609375 5 13 C0.38 13 -4.24 13 -9 13 C-8.34 12.67 -7.68 12.34 -7 12 C-7 10.35 -7 8.7 -7 7 C-7.99 6.67 -8.98 6.34 -10 6 C-9.01 6 -8.02 6 -7 6 C-7 4.68 -7 3.36 -7 2 C-1.125 0 -1.125 0 0 0 Z " fill="#314253" transform="translate(81,157)"/>
<path d="M0 0 C-2.31181679 4.29337404 -4.34124052 7.70711647 -8 11 C-8.66 11.66 -9.32 12.32 -10 13 C-13 7.25 -13 7.25 -13 5 C-15.97 4.505 -15.97 4.505 -19 4 C-19 3.34 -19 2.68 -19 2 C-12.6221448 0.82706111 -6.49678438 -0.29530838 0 0 Z " fill="#184798" transform="translate(98,131)"/>
<path d="M0 0 C1.95196674 0.34255392 3.88837896 0.77536796 5.8125 1.25 C6.87082031 1.50265625 7.92914063 1.7553125 9.01953125 2.015625 C11.91159266 2.97080124 13.71169727 4.02751629 16 6 C15.35983436 9.27748081 14.16349602 11.6276384 12.3828125 14.44140625 C11.85816406 15.27220703 11.33351562 16.10300781 10.79296875 16.95898438 C9.96732422 18.24772461 9.96732422 18.24772461 9.125 19.5625 C8.58230469 20.42552734 8.03960937 21.28855469 7.48046875 22.17773438 C2.62485318 29.81731535 2.62485318 29.81731535 0 32 C-2.1875 31.6875 -2.1875 31.6875 -4 31 C-3.11441406 30.66162109 -3.11441406 30.66162109 -2.2109375 30.31640625 C0.63989035 28.61900521 1.67497656 26.77486306 3.375 23.9375 C6.09989383 19.44909263 8.96193496 15.13445761 12.03125 10.875 C12.51078125 9.946875 12.51078125 9.946875 13 9 C12.67 8.01 12.34 7.02 12 6 C9.8509288 4.7391254 9.8509288 4.7391254 6.5 5 C3 5 3 5 1 4 C1 4.66 1 5.32 1 6 C3.97 6.495 3.97 6.495 7 7 C7 7.33 7 7.66 7 8 C1.25 8.125 1.25 8.125 -1 7 C-1.04254356 5.00045254 -1.04080783 2.99958364 -1 1 C-0.67 0.67 -0.34 0.34 0 0 Z " fill="#122D5C" transform="translate(121,67)"/>
<path d="M0 0 C0.66 0 1.32 0 2 0 C2 6.6 2 13.2 2 20 C3.65 19.67 5.3 19.34 7 19 C7 18.34 7 17.68 7 17 C7.474375 16.566875 7.94875 16.13375 8.4375 15.6875 C10.41383086 13.55306267 10.61663236 11.83692053 11 9 C14.3 8.67 17.6 8.34 21 8 C15.16288767 14.03168274 8.96913736 20.29395886 2 25 C1.34 25 0.68 25 0 25 C0 16.75 0 8.5 0 0 Z " fill="#2C60C1" transform="translate(38,36)"/>
<path d="M0 0 C3 2 3 2 4 5 C4.33 4.01 4.66 3.02 5 2 C6.32 2 7.64 2 9 2 C9 3.65 9 5.3 9 7 C8.360625 7.12375 7.72125 7.2475 7.0625 7.375 C6.0415625 7.684375 6.0415625 7.684375 5 8 C4.67 8.66 4.34 9.32 4 10 C5.65 10.33 7.3 10.66 9 11 C9 12.32 9 13.64 9 15 C7.35 15 5.7 15 4 15 C4 15.66 4 16.32 4 17 C3.01 17 2.02 17 1 17 C-0.53266582 13.93466836 -0.10276471 10.73245728 -0.0625 7.375 C-0.05798828 6.66859375 -0.05347656 5.9621875 -0.04882812 5.234375 C-0.03703875 3.48954725 -0.01910324 1.744763 0 0 Z " fill="#164AA5" transform="translate(65,162)"/>
<path d="M0 0 C3 2.375 3 2.375 5 5 C5 5.66 5 6.32 5 7 C2.69 7 0.38 7 -2 7 C-2 5.02 -2 3.04 -2 1 C-3.98 1.66 -5.96 2.32 -8 3 C-9.21352846 8.15043053 -9.21352846 8.15043053 -7.875 12.9375 C-5.4204591 14.32840651 -3.84676875 14.93221979 -1 15 C1.81099414 13.1687189 1.81099414 13.1687189 4 11 C4 12.32 4 13.64 4 15 C0.58442978 17.10188936 -2.02173 17.4871351 -6 17 C-8.875 15.6875 -8.875 15.6875 -11 13 C-11.58310849 9.27580711 -11.70671843 5.71027177 -11 2 C-7.32995329 -0.4466978 -4.26442613 -0.83795144 0 0 Z " fill="#314A64" transform="translate(80,137)"/>
<path d="M0 0 C0.33 0.99 0.66 1.98 1 3 C-1.10260341 4.14878332 -3.20696539 5.29411192 -5.3125 6.4375 C-5.90740234 6.76298828 -6.50230469 7.08847656 -7.11523438 7.42382812 C-9.72373626 8.83737384 -12.17845899 10.05948633 -15 11 C-15.33 11.99 -15.66 12.98 -16 14 C-18.46875 15.3515625 -18.46875 15.3515625 -21.5 16.625 C-25.00256002 17.91522384 -25.00256002 17.91522384 -28 20 C-28.36760731 22.32817964 -28.70241581 24.6618385 -29 27 C-28.01 27.33 -27.02 27.66 -26 28 C-26.33 28.66 -26.66 29.32 -27 30 C-28.32 29.67 -29.64 29.34 -31 29 C-31.16374356 27.6081797 -31.27920565 26.21064132 -31.375 24.8125 C-31.44460937 24.03519531 -31.51421875 23.25789063 -31.5859375 22.45703125 C-30.45351992 17.70842687 -26.05694393 15.67052552 -22.16259766 13.19995117 C-18.83549667 11.16324426 -15.48526328 9.16869842 -12.125 7.1875 C-10.94763007 6.48811244 -9.77054414 5.78824658 -8.59375 5.08789062 C-5.73191843 3.38721203 -2.86730718 1.69142482 0 0 Z " fill="#CFB150" transform="translate(126,136)"/>
<path d="M0 0 C5.28 0 10.56 0 16 0 C18.35763098 16.50341686 18.35763098 16.50341686 15.8359375 21.140625 C13.6211121 23.57125391 11.81858838 24.93860587 8.5 25.1875 C5.13340942 23.58836947 2.25833119 21.98990936 0 19 C-0.73206647 15.69796778 -0.57052276 12.54898742 -0.375 9.1875 C-0.34792969 8.30384766 -0.32085937 7.42019531 -0.29296875 6.50976562 C-0.22255869 4.33878886 -0.11494606 2.16907471 0 0 Z M1 1 C0.86440325 3.56428515 0.76566812 6.12135216 0.6875 8.6875 C0.64560547 9.40873047 0.60371094 10.12996094 0.56054688 10.87304688 C0.46482709 15.06557345 0.642413 16.54705647 3.34375 19.96875 C6.04385211 22.03353397 7.65136236 22.71297392 11 23 C14.00561828 20.04763086 15.27632688 17.94733681 15.390625 13.79296875 C15.36426199 12.25732329 15.31688145 10.72191482 15.25 9.1875 C15.22292969 8.00510742 15.22292969 8.00510742 15.1953125 6.79882812 C15.14844048 4.86535739 15.0767041 2.93251715 15 1 C10.38 1 5.76 1 1 1 Z " fill="#507399" transform="translate(79,36)"/>
<path d="M0 0 C0.33 1.98 0.66 3.96 1 6 C-3.64203897 8.53309233 -7.65155992 10.46515599 -13 11 C-13.4375 8.8125 -13.4375 8.8125 -13 6 C-9.28372011 2.39361011 -5.26071112 0 0 0 Z " fill="#F0BB25" transform="translate(113,149)"/>
<path d="M0 0 C0.33 0.66 0.66 1.32 1 2 C-0.07693603 3.60329625 -1.21558499 5.16526807 -2.37890625 6.70703125 C-6.89788556 13.5837389 -7.00844216 19.63765149 -6.9375 27.6875 C-6.95361328 28.97333984 -6.96972656 30.25917969 -6.98632812 31.58398438 C-7.02134424 34.72376288 -7.02527689 37.86022673 -7 41 C-7.33 41 -7.66 41 -8 41 C-8.12467036 37.016686 -8.21483313 33.03414494 -8.2746582 29.04931641 C-8.31182827 27.03637747 -8.3753997 25.02398163 -8.43945312 23.01171875 C-8.45556641 21.72910156 -8.47167969 20.44648438 -8.48828125 19.125 C-8.52755737 17.36542969 -8.52755737 17.36542969 -8.56762695 15.5703125 C-8 12 -8 12 -3 4 C-11.91 4 -20.82 4 -30 4 C-30 3.67 -30 3.34 -30 3 C-29.26885986 2.94465088 -28.53771973 2.88930176 -27.78442383 2.83227539 C-24.46020002 2.57883794 -21.13635583 2.3207169 -17.8125 2.0625 C-16.66201172 1.97548828 -15.51152344 1.88847656 -14.32617188 1.79882812 C-13.21435547 1.71181641 -12.10253906 1.62480469 -10.95703125 1.53515625 C-9.93585205 1.456604 -8.91467285 1.37805176 -7.86254883 1.29711914 C-5.18861501 1.01957735 -2.62420277 0.5754276 0 0 Z " fill="#223960" transform="translate(100,128)"/>
<path d="M0 0 C0.33 0 0.66 0 1 0 C1.33 15.84 1.66 31.68 2 48 C-7 52.5 -7 52.5 -11 53.75 C-11.763125 53.99234375 -12.52625 54.2346875 -13.3125 54.484375 C-13.869375 54.65453125 -14.42625 54.8246875 -15 55 C-14 52 -14 52 -11.9375 50.4375 C-9 49 -9 49 -1 47 C-0.67 31.49 -0.34 15.98 0 0 Z " fill="#E0B73E" transform="translate(143,82)"/>
<path d="M0 0 C4.60976 1.31707429 8.18857342 3.07495169 12 6 C12.33 6.99 12.66 7.98 13 9 C12.01 9.99 11.02 10.98 10 12 C9.01 11.01 8.02 10.02 7 9 C6.01 9.495 6.01 9.495 5 10 C3.0546875 9.22265625 3.0546875 9.22265625 0.875 8.0625 C0.15054687 7.68222656 -0.57390625 7.30195313 -1.3203125 6.91015625 C-1.87460937 6.60980469 -2.42890625 6.30945313 -3 6 C-3 4.68 -3 3.36 -3 2 C-2.01 2 -1.02 2 0 2 C0 1.34 0 0.68 0 0 Z " fill="#3165C2" transform="translate(28,139)"/>
<path d="M0 0 C2.28062828 3.42094242 2.21925007 4.68187222 2.125 8.6875 C2.10695313 9.68136719 2.08890625 10.67523438 2.0703125 11.69921875 C2.03550781 12.83810547 2.03550781 12.83810547 2 14 C1.34 14 0.68 14 0 14 C-0.28875 14.804375 -0.5775 15.60875 -0.875 16.4375 C-2 19 -2 19 -4 20 C-4.1081866 17.41554227 -4.18737237 14.83562648 -4.25 12.25 C-4.28351563 11.52039063 -4.31703125 10.79078125 -4.3515625 10.0390625 C-4.41902625 6.32855625 -4.34327652 4.42843039 -1.984375 1.484375 C-1.32953125 0.99453125 -0.6746875 0.5046875 0 0 Z " fill="#F9D139" transform="translate(99,57)"/>
<path d="M0 0 C1.72990025 0.93614567 3.45888696 1.87397958 5.1875 2.8125 C6.15042969 3.33457031 7.11335938 3.85664062 8.10546875 4.39453125 C9.06066406 4.92433594 10.01585938 5.45414063 11 6 C11.94488281 6.49886719 12.88976562 6.99773438 13.86328125 7.51171875 C14.56839844 8.00285156 15.27351563 8.49398438 16 9 C16 9.99 16 10.98 16 12 C15.34 12 14.68 12 14 12 C13 11 12 10 11 9 C9.29622532 7.8972419 7.56472471 6.83652743 5.8125 5.8125 C4.91144531 5.28269531 4.01039062 4.75289063 3.08203125 4.20703125 C2.39496094 3.80871094 1.70789063 3.41039062 1 3 C0.85539908 7.14576563 0.85539908 7.14576563 2 11 C5.06204989 13.55633929 8.41917951 15.27284542 12 17 C13.15048828 17.57621094 13.15048828 17.57621094 14.32421875 18.1640625 C14.87722656 18.43992187 15.43023437 18.71578125 16 19 C16 19.66 16 20.32 16 21 C3.83389874 16.28253216 3.83389874 16.28253216 -1 12 C-2.08859837 8.15327019 -1.89240915 4.87828938 -1 1 C-0.67 0.67 -0.34 0.34 0 0 Z " fill="#2C4F8A" transform="translate(80,3)"/>
<path d="M0 0 C0.33 0.66 0.66 1.32 1 2 C1.58007812 1.855625 2.16015625 1.71125 2.7578125 1.5625 C7.26659675 0.49110572 11.33054247 -0.23945936 16 0 C15.67 3.3 15.34 6.6 15 10 C14.67 10 14.34 10 14 10 C14 7.36 14 4.72 14 2 C9.38 2.66 4.76 3.32 0 4 C0 6.31 0 8.62 0 11 C-2 12.9375 -2 12.9375 -4 14 C-4.66 13.67 -5.32 13.34 -6 13 C-4.68 11.68 -3.36 10.36 -2 9 C-2.66 8.67 -3.32 8.34 -4 8 C-4 6.02 -4 4.04 -4 2 C-2.68 1.34 -1.36 0.68 0 0 Z " fill="#D5B54C" transform="translate(120,30)"/>
<path d="M0 0 C4.62 0 9.24 0 14 0 C14 3.96 14 7.92 14 12 C13.67 12 13.34 12 13 12 C12.67 9.03 12.34 6.06 12 3 C9.03 3 6.06 3 3 3 C3.04125 4.03125 3.0825 5.0625 3.125 6.125 C3.00424851 9.86829627 2.35127982 12.53734547 1 16 C0.67 16 0.34 16 0 16 C0 10.72 0 5.44 0 0 Z " fill="#6599D0" transform="translate(80,37)"/>
<path d="M0 0 C0.66 0.33 1.32 0.66 2 1 C0.39801112 2.46072532 -1.20667116 3.91849716 -2.8125 5.375 C-3.70582031 6.18710937 -4.59914063 6.99921875 -5.51953125 7.8359375 C-8 10 -8 10 -11 12 C-11.73343428 15.06556598 -11.73343428 15.06556598 -12 18 C-11.41992188 17.98839844 -10.83984375 17.97679688 -10.2421875 17.96484375 C-5.7001754 17.91237826 -1.47286431 18.08248937 3 19 C3 19.66 3 20.32 3 21 C0.9163691 20.85848172 -1.16689938 20.71162064 -3.25 20.5625 C-4.41015625 20.48128906 -5.5703125 20.40007812 -6.765625 20.31640625 C-9.30977376 20.06752213 -11.55953248 19.71885058 -14 19 C-14.33203125 15.83203125 -14.33203125 15.83203125 -14 12 C-11.69921875 9.19921875 -11.69921875 9.19921875 -8.6875 6.6875 C-7.70136719 5.84574219 -6.71523438 5.00398438 -5.69921875 4.13671875 C-3 2 -3 2 0 0 Z " fill="#102B5A" transform="translate(50,57)"/>
<path d="M0 0 C3.96 0.33 7.92 0.66 12 1 C10.8905928 4.48670834 9.73662334 7.77484237 8 11 C7.34 11 6.68 11 6 11 C4.02 7.37 2.04 3.74 0 0 Z " fill="#2B60BF" transform="translate(57,131)"/>
<path d="M0 0 C0 12.54 0 25.08 0 38 C-0.66 37.67 -1.32 37.34 -2 37 C-1.99476318 36.26362305 -1.98952637 35.52724609 -1.98413086 34.76855469 C-1.96333133 31.42904515 -1.95033032 28.08954926 -1.9375 24.75 C-1.92912109 23.59113281 -1.92074219 22.43226562 -1.91210938 21.23828125 C-1.90727539 19.56572266 -1.90727539 19.56572266 -1.90234375 17.859375 C-1.89710693 16.83295898 -1.89187012 15.80654297 -1.88647461 14.74902344 C-2.04705114 10.86065409 -2.21054789 8.78945211 -5 6 C-4.67 5.34 -4.34 4.68 -4 4 C-4.66 3.67 -5.32 3.34 -6 3 C-1.125 0 -1.125 0 0 0 Z " fill="#2E61B6" transform="translate(72,7)"/>
<path d="M0 0 C5.02137798 1.0042756 5.86243419 1.39760962 9 5 C6.83125748 4.49396008 5.00032373 4.00016187 3 3 C3.33 6.96 3.66 10.92 4 15 C3.34 15 2.68 15 2 15 C1.67 17.64 1.34 20.28 1 23 C0.67 23 0.34 23 0 23 C0 15.41 0 7.82 0 0 Z " fill="#787863" transform="translate(73,55)"/>
<path d="M0 0 C2.64 0.33 5.28 0.66 8 1 C8 5.29 8 9.58 8 14 C7.01 14.33 6.02 14.66 5 15 C5.33 17.97 5.66 20.94 6 24 C5.34 24.33 4.68 24.66 4 25 C2.50178941 21.62902617 2 19.79557881 2 16 C2.66 16 3.32 16 4 16 C4.185625 15.1646875 4.185625 15.1646875 4.375 14.3125 C5.05976855 11.77885636 5.99133763 9.42078968 7 7 C6.34 7 5.68 7 5 7 C5 5.68 5 4.36 5 3 C2.525 2.01 2.525 2.01 0 1 C0 0.67 0 0.34 0 0 Z " fill="#5D94CE" transform="translate(107,13)"/>
<path d="M0 0 C0.66 0 1.32 0 2 0 C0.89605152 3.31184543 0.03427096 4.10194155 -2.5625 6.3125 C-3.27792969 6.92222656 -3.99335937 7.53195313 -4.73046875 8.16015625 C-7.52587786 10.42631407 -10.40092218 12.55921972 -13.3359375 14.640625 C-15.26673298 16.08219743 -15.26673298 16.08219743 -17 19 C-17.66 19 -18.32 19 -19 19 C-19.33 19.99 -19.66 20.98 -20 22 C-20.66 22 -21.32 22 -22 22 C-22 22.66 -22 23.32 -22 24 C-23.32 24.33 -24.64 24.66 -26 25 C-21.17410246 19.03112673 -15.77745871 14.03972167 -10 9 C-9.22398438 8.32066406 -8.44796875 7.64132813 -7.6484375 6.94140625 C-6.29930994 5.76153287 -4.94806038 4.58407693 -3.59375 3.41015625 C-2.3569701 2.31584855 -1.16771869 1.16771869 0 0 Z " fill="#C1AE61" transform="translate(116,39)"/>
<path d="M0 0 C0.66 0 1.32 0 2 0 C2 7.59 2 15.18 2 23 C-1 23 -1 23 -2.875 22.3125 C-5.97984263 21.8559055 -7.50180796 23.26514442 -10 25 C-9.75 22.625 -9.75 22.625 -9 20 C-6.9375 18.6875 -6.9375 18.6875 -5 18 C-5 18.66 -5 19.32 -5 20 C-3.68 19.67 -2.36 19.34 -1 19 C0.00926479 14.84373632 0.10239579 10.95634906 0.0625 6.6875 C0.04896484 4.80611328 0.04896484 4.80611328 0.03515625 2.88671875 C0.02355469 1.93410156 0.01195313 0.98148438 0 0 Z " fill="#3065C6" transform="translate(69,19)"/>
<path d="M0 0 C0.66 0.33 1.32 0.66 2 1 C2 5.95 2 10.9 2 16 C1.01 16 0.02 16 -1 16 C-1.13277344 15.32453125 -1.26554687 14.6490625 -1.40234375 13.953125 C-1.57894531 13.06109375 -1.75554687 12.1690625 -1.9375 11.25 C-2.11152344 10.36828125 -2.28554687 9.4865625 -2.46484375 8.578125 C-2.92368488 6.36764947 -3.43336074 4.18487932 -4 2 C-2.125 0.9375 -2.125 0.9375 0 0 Z " fill="#16479A" transform="translate(88,150)"/>
<path d="M0 0 C0.33 0 0.66 0 1 0 C1.02505615 0.55461914 1.0501123 1.10923828 1.07592773 1.68066406 C1.19227927 4.20398843 1.31482754 6.72697536 1.4375 9.25 C1.47681641 10.12269531 1.51613281 10.99539062 1.55664062 11.89453125 C1.59853516 12.73886719 1.64042969 13.58320312 1.68359375 14.453125 C1.72025146 15.22817383 1.75690918 16.00322266 1.79467773 16.80175781 C2.00050085 19.00536222 2.26018799 20.91164178 3 23 C5.75385708 25.02113109 5.75385708 25.02113109 9.0625 26.75 C10.16722656 27.36359375 11.27195312 27.9771875 12.41015625 28.609375 C13.26480469 29.06828125 14.11945312 29.5271875 15 30 C13 31 13 31 11.08984375 30.51171875 C10.37957031 30.23972656 9.66929688 29.96773437 8.9375 29.6875 C8.22464844 29.42324219 7.51179688 29.15898437 6.77734375 28.88671875 C5 28 5 28 4 26 C3.01 25.67 2.02 25.34 1 25 C-0.27861615 22.44276771 -0.11336609 20.63262898 -0.09765625 17.7734375 C-0.09443359 16.7421875 -0.09121094 15.7109375 -0.08789062 14.6484375 C-0.07951172 13.56820312 -0.07113281 12.48796875 -0.0625 11.375 C-0.05798828 10.28703125 -0.05347656 9.1990625 -0.04882812 8.078125 C-0.03701776 5.38536211 -0.02054778 2.69270812 0 0 Z " fill="#2D5FBD" transform="translate(10,106)"/>
<path d="M0 0 C0.66 0.33 1.32 0.66 2 1 C1.34 2.98 0.68 4.96 0 7 C2.64 6.34 5.28 5.68 8 5 C8 5.99 8 6.98 8 8 C4.04 9.98 4.04 9.98 0 12 C-0.99 11.34 -1.98 10.68 -3 10 C-3.66932271 3.86454183 -3.66932271 3.86454183 -1.5 1.0625 C-1.005 0.711875 -0.51 0.36125 0 0 Z " fill="#E2B736" transform="translate(100,153)"/>
<path d="M0 0 C0.33 0 0.66 0 1 0 C1 1.65 1 3.3 1 5 C-3.27884606 7.1103435 -7.13864142 7.24128739 -11.8125 7.125 C-12.85180664 7.11146484 -12.85180664 7.11146484 -13.91210938 7.09765625 C-15.60822395 7.07426157 -17.30415871 7.03839641 -19 7 C-18.01 5.02 -17.02 3.04 -16 1 C-15.67 1.99 -15.34 2.98 -15 4 C-10.05 4 -5.1 4 0 4 C0 2.68 0 1.36 0 0 Z " fill="#D9B649" transform="translate(115,70)"/>
<path d="M0 0 C3.02346601 -0.2519555 4.6402007 -0.20421041 7.3125 1.3125 C9 3 9 3 9 6 C9.66 6 10.32 6 11 6 C11 6.99 11 7.98 11 9 C8.69 8.34 6.38 7.68 4 7 C4 6.01 4 5.02 4 4 C3.01 4 2.02 4 1 4 C0.67 2.68 0.34 1.36 0 0 Z " fill="#2C68CC" transform="translate(82,10)"/>
<path d="M0 0 C0.33 1.32 0.66 2.64 1 4 C-0.32 4.33 -1.64 4.66 -3 5 C-3 5.66 -3 6.32 -3 7 C-2.01 7.66 -1.02 8.32 0 9 C-1.98 9 -3.96 9 -6 9 C-5.67 7.35 -5.34 5.7 -5 4 C-6.32 4 -7.64 4 -9 4 C-9 5.65 -9 7.3 -9 9 C-9.66 8.67 -10.32 8.34 -11 8 C-10.67 6.35 -10.34 4.7 -10 3 C-5.05 1.515 -5.05 1.515 0 0 Z " fill="#2F5EAF" transform="translate(31,69)"/>
<path d="M0 0 C0.99 0 1.98 0 3 0 C3 0.66 3 1.32 3 2 C3.73863281 1.97679688 4.47726563 1.95359375 5.23828125 1.9296875 C12.40843864 1.80213705 18.99996389 2.45668495 26 4 C26 4.33 26 4.66 26 5 C9.27665582 5.47856947 9.27665582 5.47856947 2 3 C1.34 2.01 0.68 1.02 0 0 Z " fill="#3368C3" transform="translate(33,95)"/>
<path d="M0 0 C2.875 0.25 2.875 0.25 6 1 C8.10749729 4.02614996 8.15123736 6.17158596 7.625 9.75 C7.45871094 10.94882813 7.45871094 10.94882813 7.2890625 12.171875 C7.14597656 13.07679688 7.14597656 13.07679688 7 14 C6.67 12.68 6.34 11.36 6 10 C3.69 10 1.38 10 -1 10 C-1 7.36 -1 4.72 -1 2 C-0.67 2 -0.34 2 0 2 C0 3.98 0 5.96 0 8 C2.31 8 4.62 8 7 8 C5.08864614 4.46399535 3.37357234 2.21027154 0 0 Z " fill="#3A413B" transform="translate(78,136)"/>
<path d="M0 0 C0.66 0 1.32 0 2 0 C2.90136571 10.31562974 2.90136571 10.31562974 0.83984375 14.16796875 C-0.6875 15.8125 -0.6875 15.8125 -4 18 C-6.8125 18 -6.8125 18 -9 17 C-9.33 16.34 -9.66 15.68 -10 15 C-9.071875 15.0825 -8.14375 15.165 -7.1875 15.25 C-3.98761744 15.34627966 -3.98761744 15.34627966 -2.34375 13.34375 C-0.73100553 10.53082359 -0.5043525 8.47312197 -0.3125 5.25 C-0.21388672 3.77273437 -0.21388672 3.77273437 -0.11328125 2.265625 C-0.07589844 1.51796875 -0.03851563 0.7703125 0 0 Z " fill="#5880A5" transform="translate(94,43)"/>
<path d="M0 0 C3.48539917 0.64544429 6.02819057 2.10134397 9 4 C4.25 8 4.25 8 2 8 C0.62689293 6.70766393 -0.71034824 5.37562854 -2 4 C-1.34 2.68 -0.68 1.36 0 0 Z " fill="#3063C4" transform="translate(46,150)"/>
<path d="M0 0 C1.53202706 0.25195908 3.05257128 0.57596777 4.5625 0.9375 C5.38878906 1.13214844 6.21507813 1.32679687 7.06640625 1.52734375 C8.02353516 1.76130859 8.02353516 1.76130859 9 2 C8.67 2.66 8.34 3.32 8 4 C3.52459016 5.26229508 3.52459016 5.26229508 1 4 C1 4.66 1 5.32 1 6 C3.97 6.495 3.97 6.495 7 7 C7 7.33 7 7.66 7 8 C1.25 8.125 1.25 8.125 -1 7 C-1.04254356 5.00045254 -1.04080783 2.99958364 -1 1 C-0.67 0.67 -0.34 0.34 0 0 Z " fill="#243E65" transform="translate(121,67)"/>
<path d="M0 0 C0.33 0 0.66 0 1 0 C1.06058594 0.91523437 1.12117187 1.83046875 1.18359375 2.7734375 C1.26738281 3.96195313 1.35117188 5.15046875 1.4375 6.375 C1.51871094 7.55835938 1.59992187 8.74171875 1.68359375 9.9609375 C1.81084936 12.91518901 1.81084936 12.91518901 3 15 C2.01 15 1.02 15 0 15 C0 12.69 0 10.38 0 8 C-2.2236068 9.9254644 -2.2236068 9.9254644 -3 13 C-3.99 13 -4.98 13 -6 13 C-5.67 10.69 -5.34 8.38 -5 6 C-3.68 6 -2.36 6 -1 6 C-0.67 4.02 -0.34 2.04 0 0 Z " fill="#2457BB" transform="translate(10,55)"/>
<path d="M0 0 C3.96 0.33 7.92 0.66 12 1 C12 1.99 12 2.98 12 4 C9.625 5.75 9.625 5.75 7 7 C5 6 5 6 4 3 C1.98491642 2.26676204 1.98491642 2.26676204 0 2 C0 1.34 0 0.68 0 0 Z " fill="#184591" transform="translate(69,170)"/>
<path d="M0 0 C-2.475 4.455 -2.475 4.455 -5 9 C-6 6 -6 6 -6 3 C-8.64 2.67 -11.28 2.34 -14 2 C-14 1.67 -14 1.34 -14 1 C-9.27685687 0.22887459 -4.78478822 -0.09764874 0 0 Z " fill="#376CA3" transform="translate(115,105)"/>
<path d="M0 0 C0.66 0.33 1.32 0.66 2 1 C0.87811441 2.14888283 -0.24761684 3.29401137 -1.375 4.4375 C-2.00148438 5.07558594 -2.62796875 5.71367188 -3.2734375 6.37109375 C-5 8 -5 8 -7 9 C-7 9.99 -7 10.98 -7 12 C-5.05990478 13.70532323 -5.05990478 13.70532323 -3 15 C-5.31 15 -7.62 15 -10 15 C-10.3125 12.3046875 -10.3125 12.3046875 -10 9 C-7.8125 6.4453125 -7.8125 6.4453125 -5 4.125 C-4.071875 3.34382813 -3.14375 2.56265625 -2.1875 1.7578125 C-1.465625 1.17773438 -0.74375 0.59765625 0 0 Z " fill="#1F428D" transform="translate(48,60)"/>
<path d="M0 0 C0.99 0.33 1.98 0.66 3 1 C3 1.66 3 2.32 3 3 C3.99 3.33 4.98 3.66 6 4 C4.68 5.32 3.36 6.64 2 8 C-0.475 7.01 -0.475 7.01 -3 6 C-3 4.68 -3 3.36 -3 2 C-2.01 2 -1.02 2 0 2 C0 1.34 0 0.68 0 0 Z " fill="#336ACE" transform="translate(28,139)"/>
<path d="M0 0 C4.5 5.625 4.5 5.625 5 9 C4.01 9.66 3.02 10.32 2 11 C1.26393501 14.56769552 1.26393501 14.56769552 1 18 C0.67 18 0.34 18 0 18 C0 12.06 0 6.12 0 0 Z " fill="#0A3882" transform="translate(66,49)"/>
<path d="M0 0 C0.66 0.33 1.32 0.66 2 1 C0.7934375 1.7734375 0.7934375 1.7734375 -0.4375 2.5625 C-3.66447078 5.63205757 -3.74896257 7.64868459 -4 12 C-3.01 12.33 -2.02 12.66 -1 13 C-1.33 13.66 -1.66 14.32 -2 15 C-3.32 14.67 -4.64 14.34 -6 14 C-6.92017937 6.17847534 -6.92017937 6.17847534 -4.6640625 3.2890625 C-3 1.9375 -3 1.9375 0 0 Z " fill="#CAB26A" transform="translate(101,151)"/>
<path d="M0 0 C2.375 0.6875 2.375 0.6875 5 2 C6.3125 4.625 6.3125 4.625 7 7 C4.69 7 2.38 7 0 7 C0 4.69 0 2.38 0 0 Z " fill="#BFBA8C" transform="translate(78,137)"/>
<path d="M0 0 C-0.33 3.3 -0.66 6.6 -1 10 C-1.33 10 -1.66 10 -2 10 C-2 7.36 -2 4.72 -2 2 C-6.29 2.66 -10.58 3.32 -15 4 C-14.67 3.34 -14.34 2.68 -14 2 C-9.17574056 0.52819204 -5.07522852 -0.25376143 0 0 Z " fill="#DFB542" transform="translate(136,30)"/>
<path d="M0 0 C1.32 0 2.64 0 4 0 C4 2.97 4 5.94 4 9 C2.68 9 1.36 9 0 9 C0 6.03 0 3.06 0 0 Z " fill="#A5A897" transform="translate(75,160)"/>
<path d="M0 0 C0.99 0 1.98 0 3 0 C3 3.96 3 7.92 3 12 C2.01 12 1.02 12 0 12 C0 8.04 0 4.08 0 0 Z " fill="#CCCDAE" transform="translate(81,157)"/>
<path d="M0 0 C0.33 0 0.66 0 1 0 C1.08681476 3.62484999 1.14032721 7.24943443 1.1875 10.875 C1.22520508 12.42380859 1.22520508 12.42380859 1.26367188 14.00390625 C1.27333984 14.99003906 1.28300781 15.97617188 1.29296875 16.9921875 C1.3086792 17.90339355 1.32438965 18.81459961 1.34057617 19.75341797 C1.22818604 20.49479004 1.1157959 21.23616211 1 22 C-2 24 -2 24 -4.1875 23.625 C-5.0846875 23.315625 -5.0846875 23.315625 -6 23 C-4.35 22.34 -2.7 21.68 -1 21 C-0.67 14.07 -0.34 7.14 0 0 Z " fill="#D2B65C" transform="translate(142,107)"/>
<path d="M0 0 C3 2 3 2 4 5 C4.33 4.01 4.66 3.02 5 2 C6.32 2 7.64 2 9 2 C9 3.65 9 5.3 9 7 C6.75 7.75 6.75 7.75 4 8 C1.6875 6.3125 1.6875 6.3125 0 4 C0 2.68 0 1.36 0 0 Z " fill="#5E7DA1" transform="translate(65,162)"/>
<path d="M0 0 C-1.32 2.31 -2.64 4.62 -4 7 C-6 4 -6 4 -6 2 C-8.64 2 -11.28 2 -14 2 C-14 1.67 -14 1.34 -14 1 C-9.27685687 0.22887459 -4.78478822 -0.09764874 0 0 Z " fill="#24498F" transform="translate(98,131)"/>
<path d="M0 0 C0.99 0 1.98 0 3 0 C3.33 1.32 3.66 2.64 4 4 C4.99 3.67 5.98 3.34 7 3 C9.6875 3.4375 9.6875 3.4375 12 4 C12 4.99 12 5.98 12 7 C7.29761275 6.53898164 3.76737643 5.96823597 0 3 C0 2.01 0 1.02 0 0 Z " fill="#144492" transform="translate(40,69)"/>
<path d="M0 0 C0.33 1.32 0.66 2.64 1 4 C-2.33231343 6.22154229 -3.22105985 6.18103989 -7.0625 6 C-9.65918441 5.83283198 -9.65918441 5.83283198 -12 6 C-12.66 6.66 -13.32 7.32 -14 8 C-14 6.68 -14 5.36 -14 4 C-12.98679687 3.90912109 -12.98679687 3.90912109 -11.953125 3.81640625 C-11.06109375 3.73261719 -10.1690625 3.64882812 -9.25 3.5625 C-8.36828125 3.48128906 -7.4865625 3.40007812 -6.578125 3.31640625 C-4.30649548 3.03761535 -2.20148177 2.61209423 0 2 C0 1.34 0 0.68 0 0 Z " fill="#D1A939" transform="translate(94,61)"/>
<path d="M0 0 C0.56847656 0.38671875 1.13695313 0.7734375 1.72265625 1.171875 C6.38778468 4.31830553 11.07618899 7.27618965 16 10 C16 10.66 16 11.32 16 12 C12.20950293 10.57250019 8.72877544 8.83763458 5.1875 6.875 C3.72376953 6.06675781 3.72376953 6.06675781 2.23046875 5.2421875 C1.49441406 4.83226562 0.75835937 4.42234375 0 4 C0 2.68 0 1.36 0 0 Z " fill="#244373" transform="translate(80,12)"/>
<path d="M0 0 C0.66 0 1.32 0 2 0 C1.71125 0.556875 1.4225 1.11375 1.125 1.6875 C-0.0413253 4.08494645 -1.0339881 6.51596939 -2 9 C-2.66 9 -3.32 9 -4 9 C-4 11.31 -4 13.62 -4 16 C-4.33 16 -4.66 16 -5 16 C-5 12.04 -5 8.08 -5 4 C-3.68 3.67 -2.36 3.34 -1 3 C-0.67 2.01 -0.34 1.02 0 0 Z " fill="#D6B555" transform="translate(121,49)"/>
<path d="M0 0 C-0.66 1.32 -1.32 2.64 -2 4 C-2.763125 3.814375 -3.52625 3.62875 -4.3125 3.4375 C-7.08967375 2.77180827 -7.08967375 2.77180827 -10 4 C-11.20882096 6.00016466 -11.20882096 6.00016466 -12 8 C-12.33 8 -12.66 8 -13 8 C-13 6.02 -13 4.04 -13 2 C-4.57142857 -0.28571429 -4.57142857 -0.28571429 0 0 Z " fill="#EDB92C" transform="translate(133,32)"/>
<path d="M0 0 C0.66 0.33 1.32 0.66 2 1 C0.02579865 3.52259061 -0.96745642 3.9929808 -4.1875 4.6875 C-5.5796875 4.8421875 -5.5796875 4.8421875 -7 5 C-7 5.66 -7 6.32 -7 7 C-10 9 -10 9 -12.1875 8.625 C-12.785625 8.41875 -13.38375 8.2125 -14 8 C-4.63497453 1.98641766 -4.63497453 1.98641766 0 0 Z " fill="#E7BC42" transform="translate(125,139)"/>
<path d="M0 0 C0.99 0.495 0.99 0.495 2 1 C2 1.66 2 2.32 2 3 C2.99 3.33 3.98 3.66 5 4 C5 9.61 5 15.22 5 21 C4.67 21 4.34 21 4 21 C3.96261719 20.13117188 3.92523438 19.26234375 3.88671875 18.3671875 C3.41611089 9.73779216 3.41611089 9.73779216 0 2 C0 1.34 0 0.68 0 0 Z " fill="#1B3D6F" transform="translate(67,49)"/>
<path d="M0 0 C-3.75 3 -3.75 3 -6 3 C-6.66 5.64 -7.32 8.28 -8 11 C-8.33 11 -8.66 11 -9 11 C-9.08096803 9.54257537 -9.13917774 8.08387193 -9.1875 6.625 C-9.22230469 5.81289062 -9.25710937 5.00078125 -9.29296875 4.1640625 C-9.19628906 3.44992188 -9.09960938 2.73578125 -9 2 C-5.5647952 -0.29013653 -4.014669 -0.17842973 0 0 Z " fill="#223D58" transform="translate(78,137)"/>
<path d="M0 0 C-1.76825142 1.14981374 -3.53969521 2.29471922 -5.3125 3.4375 C-6.79169922 4.39462891 -6.79169922 4.39462891 -8.30078125 5.37109375 C-11 7 -11 7 -14 8 C-14.33 8.66 -14.66 9.32 -15 10 C-14.8359375 8.23828125 -14.8359375 8.23828125 -14 6 C-11.6015625 4.04296875 -11.6015625 4.04296875 -8.625 2.1875 C-7.64789062 1.56230469 -6.67078125 0.93710937 -5.6640625 0.29296875 C-3 -1 -3 -1 0 0 Z " fill="#23468B" transform="translate(26,45)"/>
<path d="M0 0 C1.33332095 2.6666419 0.67102033 4.16680303 0 7 C1.36125 6.4740625 1.36125 6.4740625 2.75 5.9375 C6 5 6 5 10 6 C6.04 7.98 6.04 7.98 2 10 C1.01 9.34 0.02 8.68 -1 8 C-1.25 4.4375 -1.25 4.4375 -1 1 C-0.67 0.67 -0.34 0.34 0 0 Z " fill="#D5B64E" transform="translate(98,155)"/>
<path d="M0 0 C6.75 0.875 6.75 0.875 9 2 C11.0374763 2.22858114 13.08040303 2.41024278 15.125 2.5625 C16.76855469 2.68818359 16.76855469 2.68818359 18.4453125 2.81640625 C19.28835937 2.87699219 20.13140625 2.93757813 21 3 C21 3.33 21 3.66 21 4 C13.2723068 4.31806054 7.06075526 4.32270836 0 1 C0 0.67 0 0.34 0 0 Z " fill="#669CDB" transform="translate(51,122)"/>
<path d="M0 0 C0.99 0.99 1.98 1.98 3 3 C3.66 2.67 4.32 2.34 5 2 C5.66 5.3 6.32 8.6 7 12 C3.31993178 8.61831569 1.0214155 5.57478244 -1 1 C-0.67 0.67 -0.34 0.34 0 0 Z " fill="#2C5FBD" transform="translate(26,82)"/>
<path d="M0 0 C3.96670899 0.44074544 6.68811135 1.82361603 10 4 C5.82412255 5.39195915 3.86525224 3.82323219 0 2 C-0.33 3.32 -0.66 4.64 -1 6 C-1.042721 4.33388095 -1.04063832 2.66617115 -1 1 C-0.67 0.67 -0.34 0.34 0 0 Z " fill="#E7BF4B" transform="translate(139,42)"/>
<path d="M0 0 C4.29 2.31 8.58 4.62 13 7 C12.34 7.66 11.68 8.32 11 9 C7.04 6.69 3.08 4.38 -1 2 C-0.67 1.34 -0.34 0.68 0 0 Z " fill="#294D8F" transform="translate(21,142)"/>
<path d="M0 0 C0.33 0 0.66 0 1 0 C1.02505615 0.55985596 1.0501123 1.11971191 1.07592773 1.6965332 C1.19203745 4.23541305 1.3146958 6.77393553 1.4375 9.3125 C1.47681641 10.19357422 1.51613281 11.07464844 1.55664062 11.98242188 C1.59853516 12.82998047 1.64042969 13.67753906 1.68359375 14.55078125 C1.72025146 15.33106689 1.75690918 16.11135254 1.79467773 16.9152832 C1.94125263 19.19329101 1.94125263 19.19329101 3 22 C2.01 21.67 1.02 21.34 0 21 C0 14.07 0 7.14 0 0 Z " fill="#2F59AE" transform="translate(10,106)"/>
<path d="M0 0 C0.33 2.31 0.66 4.62 1 7 C-1.97 6.505 -1.97 6.505 -5 6 C-4.67 4.35 -4.34 2.7 -4 1 C-1 0 -1 0 0 0 Z " fill="#E5B42A" transform="translate(105,68)"/>
<path d="M0 0 C-0.6875 1.9375 -0.6875 1.9375 -2 4 C-4.625 4.75 -4.625 4.75 -7 5 C-7.99 3.68 -8.98 2.36 -10 1 C-7.525 1.99 -7.525 1.99 -5 3 C-5 2.34 -5 1.68 -5 1 C-3 0 -3 0 0 0 Z " fill="#619CD5" transform="translate(93,54)"/>
<path d="M0 0 C0.33 0 0.66 0 1 0 C1 1.98 1 3.96 1 6 C2.98 5.67 4.96 5.34 7 5 C2.25 9.875 2.25 9.875 0 11 C0 7.37 0 3.74 0 0 Z " fill="#619AD4" transform="translate(101,37)"/>
<path d="M0 0 C0.33 1.32 0.66 2.64 1 4 C-3.33333333 4 -7.66666667 4 -12 4 C-12 3.67 -12 3.34 -12 3 C-8.04 2.01 -4.08 1.02 0 0 Z " fill="#214786" transform="translate(132,75)"/>
<path d="M0 0 C0.99 0.66 1.98 1.32 3 2 C3.40843923 4.71203652 3.13336867 7.2437142 3 10 C0.525 9.01 0.525 9.01 -2 8 C-2 7.34 -2 6.68 -2 6 C-1.34 6 -0.68 6 0 6 C0 4.02 0 2.04 0 0 Z " fill="#2F5AAD" transform="translate(55,154)"/>
<path d="M0 0 C5.75 1.75 5.75 1.75 8 4 C9.31747324 4.69748583 10.64914193 5.36959957 12 6 C7.92157346 6.23990744 4.73397847 5.69726294 1 4 C0.125 1.875 0.125 1.875 0 0 Z " fill="#B59D52" transform="translate(78,59)"/>
<path d="M0 0 C1.32 0.99 2.64 1.98 4 3 C3.01 3 2.02 3 1 3 C0.67 5.97 0.34 8.94 0 12 C-0.33 12 -0.66 12 -1 12 C-1.02687279 10.18757948 -1.04633715 8.37504767 -1.0625 6.5625 C-1.07410156 5.55316406 -1.08570312 4.54382813 -1.09765625 3.50390625 C-1 1 -1 1 0 0 Z " fill="#304C7C" transform="translate(80,3)"/>
<path d="M0 0 C2 1 2 1 3.125 3.0625 C4.2583306 6.86725273 4.13434296 10.0368828 4 14 C3.67 14 3.34 14 3 14 C2.57682292 11.98177083 2.15364583 9.96354167 1.73046875 7.9453125 C1.07691162 5.62953451 1.07691162 5.62953451 -2 4 C-1.34 3.67 -0.68 3.34 0 3 C0 2.01 0 1.02 0 0 Z " fill="#264B8C" transform="translate(83,152)"/>
<path d="M0 0 C0.33 0.66 0.66 1.32 1 2 C1.99 2.33 2.98 2.66 4 3 C4 3.66 4 4.32 4 5 C5.32 5 6.64 5 8 5 C8.33 6.32 8.66 7.64 9 9 C6.03 7.35 3.06 5.7 0 4 C0 2.68 0 1.36 0 0 Z " fill="#2C5EBE" transform="translate(5,129)"/>
<path d="M0 0 C0.33 0 0.66 0 1 0 C1.33 1.65 1.66 3.3 2 5 C2.99 5 3.98 5 5 5 C4.1875 6.9375 4.1875 6.9375 3 9 C2.01 9.33 1.02 9.66 0 10 C0 6.7 0 3.4 0 0 Z " fill="#3968C3" transform="translate(38,51)"/>
<path d="M0 0 C0.99 0 1.98 0 3 0 C1.75023244 3.65316671 1.32901247 4.78065836 -2 7 C-4.6875 6.625 -4.6875 6.625 -7 6 C-7 5.67 -7 5.34 -7 5 C-5.02 4.67 -3.04 4.34 -1 4 C-0.67 2.68 -0.34 1.36 0 0 Z " fill="#BEBF9D" transform="translate(81,146)"/>
<path d="M0 0 C2.64 0.33 5.28 0.66 8 1 C8 1.66 8 2.32 8 3 C6.35 3.66 4.7 4.32 3 5 C2.01 3.35 1.02 1.7 0 0 Z " fill="#3668B5" transform="translate(57,131)"/>
<path d="M0 0 C0.8125 1.6875 0.8125 1.6875 1 4 C-1.4375 6.75 -1.4375 6.75 -4 9 C-4.25 6.75 -4.25 6.75 -4 4 C-2 1.6875 -2 1.6875 0 0 Z " fill="#F6D34E" transform="translate(99,57)"/>
<path d="M0 0 C0.33 0 0.66 0 1 0 C1.04898438 0.84304687 1.09796875 1.68609375 1.1484375 2.5546875 C1.22320312 3.65039062 1.29796875 4.74609375 1.375 5.875 C1.44460937 6.96554688 1.51421875 8.05609375 1.5859375 9.1796875 C1.73253491 12.13046474 1.73253491 12.13046474 4 14 C3.01 14.66 2.02 15.32 1 16 C0 15 0 15 -0.09765625 11.62109375 C-0.09098369 10.22652923 -0.07902532 8.83198257 -0.0625 7.4375 C-0.05798828 6.72658203 -0.05347656 6.01566406 -0.04882812 5.28320312 C-0.03700864 3.52209987 -0.01907263 1.76103964 0 0 Z " fill="#567893" transform="translate(99,35)"/>
<path d="M0 0 C2.97 0.495 2.97 0.495 6 1 C5.67 1.99 5.34 2.98 5 4 C3.02 4 1.04 4 -1 4 C-0.67 2.68 -0.34 1.36 0 0 Z " fill="#2A61C6" transform="translate(81,97)"/>
<path d="M0 0 C1.65 0 3.3 0 5 0 C4.01 0.495 4.01 0.495 3 1 C2.31527335 2.88764903 2.31527335 2.88764903 1.875 5.0625 C1.70742187 5.79597656 1.53984375 6.52945312 1.3671875 7.28515625 C1.24601562 7.85105469 1.12484375 8.41695312 1 9 C0.67 9 0.34 9 0 9 C0 6.03 0 3.06 0 0 Z " fill="#5F9CD9" transform="translate(101,14)"/>
<path d="M0 0 C2.875 -0.125 2.875 -0.125 6 0 C6.66 0.66 7.32 1.32 8 2 C7.67 2.99 7.34 3.98 7 5 C6.01 5 5.02 5 4 5 C1.8125 2.5 1.8125 2.5 0 0 Z " fill="#2D6ACE" transform="translate(44,153)"/>
<path d="M0 0 C-6.45 4.09326923 -6.45 4.09326923 -9.234375 3.62109375 C-9.81703125 3.41613281 -10.3996875 3.21117187 -11 3 C-9.73581754 2.30034557 -8.46334598 1.61565237 -7.1875 0.9375 C-6.47980469 0.55464844 -5.77210938 0.17179688 -5.04296875 -0.22265625 C-3 -1 -3 -1 0 0 Z " fill="#CEAC44" transform="translate(144,139)"/>
<path d="M0 0 C2.31 0 4.62 0 7 0 C6.67 0.66 6.34 1.32 6 2 C5.34 2 4.68 2 4 2 C3.67 2.99 3.34 3.98 3 5 C1.5 3.625 1.5 3.625 0 2 C0 1.34 0 0.68 0 0 Z " fill="#6D9ED5" transform="translate(40,105)"/>
<path d="M0 0 C0.99 0.33 1.98 0.66 3 1 C2.67 2.32 2.34 3.64 2 5 C0.35 5.33 -1.3 5.66 -3 6 C-2 4 -1 2 0 0 Z " fill="#DDBD38" transform="translate(126,44)"/>
<path d="M0 0 C0 0.66 0 1.32 0 2 C-0.99 2 -1.98 2 -3 2 C-3.33 2.99 -3.66 3.98 -4 5 C-6.0625 5.6875 -6.0625 5.6875 -8 6 C-6.72879117 2.18637351 -4.19078006 0 0 0 Z " fill="#CAAE4B" transform="translate(136,131)"/>
<path d="M0 0 C0.33 0.99 0.66 1.98 1 3 C4.00847418 4.22520264 4.00847418 4.22520264 7 5 C7 5.33 7 5.66 7 6 C4.69 6 2.38 6 0 6 C0 4.02 0 2.04 0 0 Z " fill="#183D85" transform="translate(38,69)"/>
<path d="M0 0 C0.33 0 0.66 0 1 0 C1 2.64 1 5.28 1 8 C0.01 8 -0.98 8 -2 8 C-2.20086443 4.28400809 -2.1519437 3.22791555 0 0 Z " fill="#E0B01F" transform="translate(94,65)"/>
<path d="M0 0 C-1.38081223 4.1424367 -3.59825558 5.32203099 -7 8 C-7.66 7.67 -8.32 7.34 -9 7 C-7.88121617 5.82737096 -6.75476949 4.66204862 -5.625 3.5 C-4.68527344 2.52546875 -4.68527344 2.52546875 -3.7265625 1.53125 C-2 0 -2 0 0 0 Z " fill="#BAA050" transform="translate(118,39)"/>
<path d="M0 0 C0.33 0 0.66 0 1 0 C1 3.96 1 7.92 1 12 C0.01 12 -0.98 12 -2 12 C-1.34 8.04 -0.68 4.08 0 0 Z " fill="#B2BAB1" transform="translate(83,157)"/>
<path d="M0 0 C1.98 0 3.96 0 6 0 C6 0.99 6 1.98 6 3 C5.34 3.66 4.68 4.32 4 5 C2.68 3.35 1.36 1.7 0 0 Z " fill="#2866CC" transform="translate(34,146)"/>
<path d="M0 0 C3.37462715 0.54723683 5.08235 1.0549 8 3 C8 3.99 8 4.98 8 6 C6 6 6 6 4 4.125 C3.34 3.42375 2.68 2.7225 2 2 C1.34 1.34 0.68 0.68 0 0 Z " fill="#16294E" transform="translate(129,70)"/>
<path d="M0 0 C0.66 0.99 1.32 1.98 2 3 C1.67 3.99 1.34 4.98 1 6 C-0.98 5.01 -2.96 4.02 -5 3 C-4.360625 2.87625 -3.72125 2.7525 -3.0625 2.625 C-2.0415625 2.315625 -2.0415625 2.315625 -1 2 C-0.67 1.34 -0.34 0.68 0 0 Z " fill="#3764A7" transform="translate(94,16)"/>
</svg>
